<svg width="81" height="68" viewBox="0 0 81 68" fill="none" xmlns="http://www.w3.org/2000/svg">
<path d="M62.146 13.6579C61.8739 13.6109 61.6152 13.7934 61.5682 14.0655C61.5212 14.3376 61.7036 14.5963 61.9758 14.6433L62.146 13.6579ZM16.3121 30.1965L16.6486 30.5663V30.5663L16.3121 30.1965ZM24.9581 24.1394C25.0187 23.87 24.8494 23.6025 24.58 23.5419L20.1895 22.5551C19.9201 22.4946 19.6526 22.6639 19.592 22.9333C19.5314 23.2027 19.7008 23.4702 19.9702 23.5308L23.8728 24.4079L22.9957 28.3106C22.9352 28.58 23.1045 28.8475 23.3739 28.908C23.6433 28.9686 23.9108 28.7993 23.9714 28.5299L24.9581 24.1394ZM72.1685 21.0228C74.146 25.2636 72.5436 30.8334 68.0528 36.4923C63.5828 42.1249 56.345 47.7105 47.3904 51.8862L47.813 52.7925C56.8778 48.5655 64.2506 42.892 68.8361 37.1139C73.4008 31.3619 75.2986 25.3692 73.0748 20.6002L72.1685 21.0228ZM47.3904 51.8862C38.4357 56.0618 29.5046 58.0159 22.3164 57.8195C15.0949 57.6222 9.79812 55.2695 7.82062 51.0287L6.91432 51.4513C9.13812 56.2203 14.9488 58.6185 22.2891 58.8191C29.6629 59.0206 38.7482 57.0195 47.813 52.7925L47.3904 51.8862ZM61.9758 14.6433C66.9968 15.5107 70.61 17.6806 72.1685 21.0228L73.0748 20.6002C71.3212 16.8396 67.3301 14.5535 62.146 13.6579L61.9758 14.6433ZM7.82062 51.0287C6.53671 48.2753 6.7575 44.9698 8.30968 41.4225C9.86207 37.8748 12.7294 34.1313 16.6486 30.5663L15.9757 29.8266C11.9873 33.4545 9.0185 37.3081 7.39355 41.0217C5.76841 44.7356 5.47066 48.3554 6.91432 51.4513L7.82062 51.0287ZM16.6486 30.5663C18.9942 28.4327 21.7113 26.3679 24.7377 24.4522L24.2029 23.6073C21.1313 25.5515 18.3674 27.651 15.9757 29.8266L16.6486 30.5663Z" fill="url(#paint0_linear_609_4)"/>
<path d="M62.1143 0C62.1143 7.73199 55.8462 14 48.1143 14C55.8462 14 62.1143 20.268 62.1143 28C62.1143 20.268 68.3823 14 76.1143 14C68.3823 14 62.1143 7.73199 62.1143 0Z" fill="url(#paint1_radial_609_4)"/>
<defs>
<linearGradient id="paint0_linear_609_4" x1="13.5" y1="27.5" x2="64" y2="63" gradientUnits="userSpaceOnUse">
<stop stop-color="white" stop-opacity="0.4"/>
<stop offset="0.21784" stop-color="white"/>
<stop offset="0.578937" stop-color="white" stop-opacity="0.44"/>
<stop offset="1" stop-color="white" stop-opacity="0"/>
</linearGradient>
<radialGradient id="paint1_radial_609_4" cx="0" cy="0" r="1" gradientUnits="userSpaceOnUse" gradientTransform="translate(62.1143 14) rotate(90) scale(16.1875)">
<stop stop-color="white"/>
<stop offset="1" stop-color="#353535"/>
</radialGradient>
</defs>
</svg>
