<svg width="69" height="64" viewBox="0 0 69 64" fill="none" xmlns="http://www.w3.org/2000/svg">
<path fill-rule="evenodd" clip-rule="evenodd" d="M60.8175 43.5233C60.7166 43.5857 60.6144 43.6468 60.5112 43.7064C60.4033 43.7686 60.2947 43.8291 60.1855 43.8877C60.0848 43.9503 59.9829 44.0114 59.8797 44.071C59.7717 44.1333 59.663 44.1936 59.5534 44.252C59.453 44.3148 59.3513 44.376 59.2482 44.4355C59.1401 44.498 59.0311 44.5582 58.9213 44.6162C58.8212 44.6794 58.7197 44.7407 58.6167 44.8001C58.5085 44.8626 58.3992 44.9227 58.289 44.9804C58.1894 45.0439 58.0881 45.1053 57.9853 45.1647C57.8768 45.2273 57.7673 45.2872 57.6567 45.3445C57.5575 45.4084 57.4565 45.47 57.3538 45.5293C57.2452 45.592 57.1353 45.6517 57.0242 45.7085C56.9255 45.7728 56.8249 45.8346 56.7223 45.8939C56.6135 45.9567 56.5032 46.0162 56.3916 46.0723C56.2935 46.1373 56.1933 46.1993 56.0908 46.2585C50.5108 49.4801 40.6146 42.7862 33.9872 31.3072C27.3598 19.8282 26.5108 7.9109 32.0908 4.68924C32.1933 4.6301 32.2971 4.57431 32.4024 4.52183C32.5069 4.45323 32.6135 4.38748 32.7223 4.32465C32.8249 4.26543 32.9287 4.20918 33.0338 4.15589C33.1385 4.08807 33.2452 4.02278 33.3538 3.96007C33.4565 3.90076 33.5604 3.84413 33.6653 3.79015C33.7702 3.72299 33.8768 3.65809 33.9853 3.59549C34.0881 3.5361 34.192 3.47914 34.2968 3.42457C34.4018 3.35798 34.5085 3.29341 34.6167 3.2309C34.7197 3.17145 34.8236 3.1142 34.9283 3.05912C35.0335 2.99302 35.1401 2.92874 35.2482 2.86632C35.3513 2.80681 35.4552 2.7493 35.5598 2.69378C35.6651 2.6281 35.7717 2.56408 35.8797 2.50173C35.9829 2.44217 36.0868 2.38444 36.1913 2.32853C36.2967 2.26323 36.4033 2.19943 36.5112 2.13715C36.6144 2.07753 36.7183 2.0196 36.8229 1.96335C36.9283 1.89838 37.0349 1.83478 37.1427 1.77257C45.5128 -3.05992 57.6707 2.32816 64.2981 13.8072C70.9255 25.2862 69.5128 38.5093 61.1427 43.3418C61.0349 43.404 60.9265 43.4645 60.8175 43.5233ZM59.521 36.0602C59.1804 31.2796 57.3232 25.4596 54.0213 19.7405C50.7193 14.0214 46.6077 9.50304 42.6378 6.81778C39.6714 4.81124 36.8184 3.84844 34.4453 4.12885C32.0198 6.62858 30.5625 10.1114 30.1397 14.0687C29.5737 19.367 30.8656 25.5004 34.1604 31.2072C37.4552 36.914 42.121 41.0995 46.9925 43.2585C50.6309 44.8709 54.3758 45.3503 57.7534 44.4996C59.1827 42.5847 59.7755 39.6325 59.521 36.0602ZM58.2681 44.3588C58.1983 44.3794 58.1285 44.3994 58.0584 44.4189C61.3199 39.7082 59.8939 29.5123 54.1945 19.6405C48.495 9.76873 40.3781 3.43589 34.6678 3.90507C34.7196 3.85412 34.7719 3.80361 34.8246 3.75354C37.4008 3.24756 40.5135 4.14086 43.7199 6.19807C47.8021 8.81721 51.9831 13.2937 55.2842 19.0113C58.5853 24.729 60.3716 30.5881 60.5987 35.433C60.7771 39.2384 59.9944 42.3807 58.2681 44.3588ZM58.7473 44.2069C58.7052 44.2212 58.6631 44.2352 58.621 44.249C62.4192 39.4991 61.2672 28.9741 55.4574 18.9113C49.6477 8.84855 41.1087 2.58841 35.0962 3.50283C35.1292 3.4732 35.1624 3.44374 35.1957 3.41444C37.9793 2.66922 41.3564 3.48106 44.8019 5.57819C48.9966 8.13132 53.2469 12.566 56.5472 18.2822C59.8474 23.9984 61.5628 29.8966 61.6765 34.8059C61.7699 38.8384 60.7844 42.1689 58.7473 44.2069ZM59.1945 44.0464C59.1848 44.0501 59.1752 44.0537 59.1655 44.0574C63.4952 39.2574 62.6288 28.4159 56.7204 18.1822C50.8119 7.94847 41.8561 1.77742 35.5344 3.12705C35.5424 3.1205 35.5504 3.11397 35.5584 3.10745C38.5535 2.11125 42.1998 2.83084 45.8839 4.95817C50.1912 7.44538 54.5108 11.8383 57.8101 17.553C61.1095 23.2677 62.7541 29.205 62.7545 34.1789C62.7548 38.433 61.5548 41.9506 59.1945 44.0464ZM48.6239 44.1145C51.1403 44.9785 53.6782 45.2998 56.0844 45.0108C53.7078 45.346 51.1654 45.0232 48.6239 44.1145ZM39.562 0.899331C43.1836 -0.318116 47.3022 0.0873507 51.2929 1.8559C56.1643 4.01482 60.8301 8.2004 64.1249 13.9072C67.4197 19.614 68.7116 25.7474 68.1456 31.0457C67.6819 35.386 65.9737 39.1555 63.1086 41.6832C68.6922 35.9516 68.8642 24.6325 63.0351 14.5363C57.2061 4.44016 47.3175 -1.07046 39.562 0.899331ZM30.2141 12.2278C30.6979 9.57244 31.6895 7.20927 33.1681 5.3187C31.7147 7.25802 30.7241 9.61657 30.2141 12.2278ZM61.7722 15.2655C67.6232 25.3997 67.6482 36.6389 62.2942 42.1813C65.0751 39.7357 66.6922 36.0058 67.0672 31.6721C67.52 26.4389 66.1577 20.3447 62.8619 14.6363C59.5662 8.92795 54.9696 4.70106 50.2112 2.47662C46.2706 0.634515 42.2319 0.17 38.7234 1.3555C46.2003 -0.509992 55.9212 5.13128 61.7722 15.2655ZM48.1495 44.1523C50.7955 45.1627 53.4602 45.5512 55.9558 45.2301C53.4976 45.6078 50.8272 45.2177 48.1495 44.1523ZM32.9139 5.3204C31.3577 7.26034 30.3604 9.76798 29.9442 12.6196C30.3922 9.82294 31.3881 7.32102 32.9139 5.3204ZM47.7152 44.1907C50.4642 45.3456 53.2262 45.8045 55.779 45.4579C53.2723 45.8724 50.5033 45.412 47.7152 44.1907ZM37.8918 1.80846C41.2834 0.655223 45.2398 1.17978 49.1295 3.09721C53.775 5.38723 58.3023 9.65552 61.599 15.3655C64.8957 21.0755 66.3284 27.1304 65.9889 32.2986C65.7046 36.6259 64.1807 40.3145 61.4861 42.6751C66.6074 37.3241 66.3821 26.1669 60.5092 15.9947C54.6363 5.8225 45.0865 0.0488052 37.8918 1.80846ZM29.6938 12.9767C30.0301 9.95136 31.0159 7.32309 32.6283 5.35948C31.0517 7.39695 30.0681 10.0184 29.6938 12.9767ZM59.2463 16.7238C65.141 26.9338 65.5697 38.007 60.6844 43.1642C63.2904 40.892 64.7191 37.2463 64.9107 32.9252C65.1369 27.822 63.6336 21.8063 60.336 16.0947C57.0385 10.3831 52.5803 6.07334 48.0477 3.71767C44.2097 1.72303 40.3381 1.13747 37.0673 2.25817C43.9763 0.606019 53.3516 6.51389 59.2463 16.7238ZM47.3138 44.2298C50.1437 45.5274 52.9781 46.0598 55.5609 45.694C53.0339 46.14 50.1913 45.6065 47.3138 44.2298ZM32.3148 5.43038C30.665 7.39579 29.7057 10.1243 29.4592 13.3046C29.7504 10.205 30.7065 7.48425 32.3148 5.43038ZM46.9404 44.2702C49.8324 45.7082 52.7172 46.3168 55.3064 45.9379C52.7841 46.4104 49.8897 45.8014 46.9404 44.2702ZM36.2501 2.70461C39.3961 1.61661 43.1802 2.2641 46.9658 4.33799C51.3857 6.75939 55.7746 11.1107 59.0731 16.8238C62.3716 22.537 63.9455 28.5135 63.8325 33.552C63.7357 37.8674 62.4045 41.4682 59.8892 43.6488C64.5352 38.6874 63.8997 27.7005 57.9833 17.453C52.0669 7.20554 42.8697 1.16174 36.2501 2.70461ZM29.2375 13.6079C29.3861 10.2881 30.3059 7.47697 31.9763 5.5288C30.3535 7.58166 29.4382 10.3843 29.2375 13.6079ZM46.5909 44.3118C49.5288 45.8881 52.4447 46.5754 55.0195 46.1894C52.5239 46.6837 49.597 45.9971 46.5909 44.3118ZM31.615 5.65156C29.9391 7.5656 29.0703 10.4437 29.0267 13.8897C29.1305 10.5573 29.9933 7.68839 31.615 5.65156ZM46.2624 44.355C49.2316 46.0672 52.1612 46.8355 54.7031 46.4481C52.2545 46.96 49.3124 46.1941 46.2624 44.355ZM28.825 14.1526C28.7574 10.5917 29.5651 7.66078 31.2327 5.79618C29.6263 7.80383 28.8269 10.7251 28.825 14.1526ZM45.9522 44.4C48.9399 46.2454 51.8674 47.0969 54.3597 46.714C51.9765 47.2396 49.0352 46.3928 45.9522 44.4ZM30.8308 5.96067C29.184 7.76178 28.4467 10.7324 28.631 14.3987C28.5266 10.8886 29.253 7.92762 30.8308 5.96067Z" fill="white"/>
<path fill-rule="evenodd" clip-rule="evenodd" d="M31.6516 61.517C31.7561 61.4608 31.86 61.4028 31.9633 61.3432C32.0711 61.2809 32.1777 61.2171 32.2831 61.1518C32.3877 61.0959 32.4916 61.0382 32.5947 60.9786C32.7027 60.9163 32.8093 60.8523 32.9146 60.7866C33.0193 60.7311 33.1231 60.6735 33.2262 60.614C33.3343 60.5516 33.441 60.4873 33.5461 60.4212C33.6509 60.3662 33.7547 60.3089 33.8577 60.2495C33.966 60.1869 34.0726 60.1224 34.1776 60.0558C34.2825 60.0012 34.3863 59.9443 34.4892 59.8849C34.5976 59.8223 34.7042 59.7574 34.8091 59.6902C34.9141 59.6362 35.0179 59.5796 35.1206 59.5203C35.2293 59.4576 35.3359 59.3923 35.4406 59.3245C35.5457 59.2712 35.6495 59.2149 35.7521 59.1557C35.8609 59.0929 35.9676 59.0271 36.072 58.9585C36.1773 58.906 36.2812 58.8503 36.3836 58.7911C41.9637 55.5695 41.1146 43.6522 34.4872 32.1732C27.8598 20.6942 17.9637 14.0002 12.3836 17.2219C12.2812 17.281 12.1809 17.3431 12.0828 17.408C11.9712 17.4642 11.8609 17.5237 11.7521 17.5865C11.6495 17.6457 11.5489 17.7075 11.4502 17.7719C11.3391 17.8286 11.2292 17.8884 11.1206 17.9511C11.0179 18.0104 10.9169 18.072 10.8177 18.1359C10.7071 18.1931 10.5976 18.253 10.4892 18.3157C10.3863 18.375 10.285 18.4365 10.1854 18.5C10.0752 18.5576 9.96595 18.6177 9.85768 18.6802C9.75471 18.7397 9.6532 18.801 9.55314 18.8641C9.44331 18.9222 9.33432 18.9824 9.2262 19.0448C9.12313 19.1043 9.02139 19.1655 8.92099 19.2284C8.81147 19.2867 8.70271 19.3471 8.59473 19.4094C8.49155 19.469 8.38961 19.5301 8.28891 19.5927C8.17968 19.6513 8.07111 19.7117 7.96325 19.774C7.85999 19.8336 7.75787 19.8946 7.65689 19.957C7.5479 20.0158 7.43953 20.0764 7.33177 20.1386C-1.03835 24.9711 -2.45109 38.1942 4.17633 49.6732C10.8037 61.1522 22.9617 66.5403 31.3318 61.7078C31.4395 61.6456 31.5461 61.582 31.6516 61.517ZM25.8366 56.6626C21.8667 53.9773 17.7551 49.459 14.4532 43.7398C11.1512 38.0207 9.29405 32.2008 8.95346 27.4202C8.69895 23.8479 9.29168 20.8957 10.721 18.9808C14.0986 18.1301 17.8435 18.6094 21.482 20.2219C26.3535 22.3808 31.0192 26.5664 34.314 32.2732C37.6088 37.98 38.9008 44.1134 38.3347 49.4117C37.9119 53.369 36.4546 56.8518 34.0291 59.3515C31.6561 59.6319 28.803 58.6691 25.8366 56.6626ZM33.6498 59.7268C33.7025 59.6767 33.7548 59.6262 33.8067 59.5753C28.0964 60.0445 19.9794 53.7116 14.28 43.8398C8.58048 33.9681 7.15455 23.7722 10.416 19.0615C10.346 19.0809 10.2761 19.101 10.2064 19.1216C8.48007 21.0996 7.69735 24.242 7.87574 28.0474C8.10286 32.8923 9.88912 38.7514 13.1902 44.469C16.4913 50.1867 20.6723 54.6632 24.7545 57.2823C27.9609 59.3395 31.0736 60.2328 33.6498 59.7268ZM33.2787 60.0659C33.312 60.0366 33.3452 60.0072 33.3783 59.9775C27.3657 60.8919 18.8268 54.6318 13.017 44.569C7.20725 34.5062 6.05527 23.9812 9.85347 19.2314C9.81129 19.2452 9.76918 19.2592 9.72714 19.2734C7.68999 21.3114 6.70451 24.642 6.79791 28.6745C6.91162 33.5838 8.62702 39.482 11.9273 45.1982C15.2275 50.9143 19.4778 55.349 23.6725 57.9022C27.1181 59.9993 30.4952 60.8111 33.2787 60.0659ZM32.9161 60.3729C32.9241 60.3664 32.9321 60.3599 32.94 60.3533C26.6183 61.7029 17.6625 55.5319 11.7541 45.2982C5.84562 35.0645 4.97924 24.223 9.30892 19.423C9.29926 19.4266 9.28961 19.4303 9.27996 19.434C6.91967 21.5297 5.71967 25.0474 5.71996 29.3015C5.72031 34.2753 7.36494 40.2127 10.6643 45.9273C13.9637 51.642 18.2833 56.035 22.5905 58.5222C26.2746 60.6495 29.9209 61.3691 32.9161 60.3729ZM38.2603 51.2526C37.7503 53.8638 36.7597 56.2224 35.3063 58.1617C36.7849 56.2711 37.7765 53.9079 38.2603 51.2526ZM5.36587 21.7971C2.5007 24.3249 0.792552 28.0944 0.328843 32.4347C-0.237221 37.733 1.05472 43.8664 4.34953 49.5732C7.64434 55.28 12.3101 59.4655 17.1816 61.6245C21.1722 63.393 25.2908 63.7985 28.9125 62.581C21.1569 64.5508 11.2683 59.0402 5.43928 48.944C-0.389749 38.8478 -0.217796 27.5287 5.36587 21.7971ZM19.8505 19.3659C17.309 18.4572 14.7667 18.1344 12.3901 18.4696C14.7963 18.1805 17.3342 18.5019 19.8505 19.3659ZM6.70223 48.2148C12.5532 58.3491 22.2741 63.9903 29.751 62.1249C26.2425 63.3104 22.2038 62.8458 18.2632 61.0037C13.5048 58.7793 8.90823 54.5524 5.61249 48.844C2.31675 43.1356 0.954426 37.0414 1.40723 31.8083C1.78221 27.4746 3.39929 23.7447 6.1802 21.299C0.826178 26.8415 0.851234 38.0806 6.70223 48.2148ZM38.5302 50.8607C38.0822 53.6574 37.0864 56.1593 35.5605 58.16C37.1167 56.22 38.1141 53.7123 38.5302 50.8607ZM12.5187 18.2503C14.9768 17.8726 17.6471 18.2627 20.3248 19.328C17.6788 18.3177 15.0142 17.9292 12.5187 18.2503ZM38.7806 50.5037C38.4064 53.4619 37.4228 56.0833 35.8462 58.1208C37.4586 56.1572 38.4443 53.529 38.7806 50.5037ZM6.98829 20.8053C4.29375 23.1659 2.76984 26.8545 2.48554 31.1818C2.146 36.3499 3.57877 42.4049 6.87544 48.1148C10.1721 53.8248 14.6995 58.0931 19.345 60.3832C23.2346 62.3006 27.191 62.8251 30.5826 61.6719C23.3879 63.4315 13.8381 57.6579 7.96519 47.4857C2.09228 37.3135 1.86701 26.1563 6.98829 20.8053ZM20.7592 19.2897C17.9711 18.0683 15.202 17.6079 12.6953 18.0225C15.2481 17.6758 18.0102 18.1347 20.7592 19.2897ZM9.22814 46.7565C15.1229 56.9665 24.4982 62.8743 31.4071 61.2222C28.1363 62.3429 24.2647 61.7573 20.4268 59.7627C15.8941 57.407 11.436 53.0973 8.1384 47.3857C4.84082 41.6741 3.3375 35.6584 3.56377 30.5551C3.75536 26.234 5.18401 22.5884 7.79 20.3161C2.90471 25.4734 3.33342 36.5466 9.22814 46.7565ZM39.0153 50.1757C38.724 53.2753 37.7679 55.996 36.1597 58.0499C37.8094 56.0845 38.7687 53.356 39.0153 50.1757ZM12.9135 17.7864C15.4404 17.3404 18.2831 17.8739 21.1606 19.2505C18.3306 17.9529 15.4963 17.4206 12.9135 17.7864ZM39.2369 49.8725C39.0363 53.0961 38.1209 55.8987 36.4981 57.9515C38.1685 56.0033 39.0883 53.1922 39.2369 49.8725ZM8.58524 19.8316C6.06997 22.0122 4.73868 25.613 4.64192 29.9284C4.52894 34.9669 6.10287 40.9434 9.40135 46.6565C12.6998 52.3696 17.0887 56.721 21.5086 59.1424C25.2942 61.2163 29.0783 61.8638 32.2243 60.7758C25.6047 62.3186 16.4075 56.2748 10.4911 46.0273C4.57472 35.7799 3.93927 24.7929 8.58524 19.8316ZM21.534 19.2102C18.5847 17.679 15.6903 17.07 13.1679 17.5425C15.7572 17.1636 18.642 17.7721 21.534 19.2102ZM39.4477 49.5907C39.3439 52.923 38.4811 55.7919 36.8594 57.8287C38.5353 55.9147 39.4041 53.0366 39.4477 49.5907ZM13.4549 17.291C15.9504 16.7967 18.8774 17.4833 21.8835 19.1685C18.9456 17.5922 16.0297 16.9049 13.4549 17.291ZM39.6494 49.3277C39.6476 52.7552 38.8481 55.6765 37.2417 57.6841C38.9094 55.8195 39.717 52.8886 39.6494 49.3277ZM22.212 19.1253C19.162 17.2863 16.2199 16.5203 13.7713 17.0322C16.3132 16.6448 19.2428 17.4132 22.212 19.1253ZM39.8435 49.0816C39.9478 52.5917 39.2215 55.5527 37.6436 57.5197C39.2904 55.7186 40.0277 52.7479 39.8435 49.0816ZM14.1147 16.7664C16.4979 16.2408 19.4392 17.0876 22.5222 19.0803C19.5345 17.2349 16.607 16.3834 14.1147 16.7664Z" fill="white"/>
</svg>
