<svg width="72" height="72" viewBox="0 0 72 72" fill="none" xmlns="http://www.w3.org/2000/svg">
<path fill-rule="evenodd" clip-rule="evenodd" d="M36.45 71.9957C45.3659 71.825 53.2991 66.5898 58.4898 58.4898C66.1786 53.5626 71.2861 46.1643 71.9308 37.8C71.9767 37.3238 72 36.8436 72 36.36L71.9998 36.2927C71.9997 36.2618 71.9995 36.2309 71.9991 36.2L71.9998 36.1L72 36L71.9997 35.8875L72 35.82C72 35.7298 71.9986 35.6398 71.9957 35.55C71.825 26.6341 66.5898 18.7009 58.4898 13.5102C53.2991 5.41019 45.3659 0.175018 36.45 0.00430532C36.3602 0.00143858 36.2702 0 36.18 0L36.1125 0.000268838L36 0C35.9333 0 35.8666 0.000283598 35.8 0.000849882C35.7467 0.000283598 35.6934 0 35.64 0C35.1564 0 34.6762 0.0232825 34.2 0.0691694C25.8357 0.71392 18.4374 5.82138 13.5102 13.5102C5.41019 18.7009 0.175018 26.6341 0.00430532 35.55C0.00143858 35.6398 0 35.7298 0 35.82L0.000268838 35.8875L0 36C0 36.0667 0.000283598 36.1334 0.000849882 36.2C0.000283598 36.2533 0 36.3066 0 36.36C0 36.8436 0.0232825 37.3238 0.0691694 37.8C0.71392 46.1643 5.82138 53.5626 13.5102 58.4898C18.4374 66.1786 25.8357 71.2861 34.2 71.9308C34.6762 71.9767 35.1564 72 35.64 72L35.7073 71.9998C35.7382 71.9997 35.7691 71.9995 35.8 71.9991L35.9 71.9998L36 72L36.1125 71.9997L36.18 72C36.2702 72 36.3602 71.9986 36.45 71.9957ZM41.1582 70.9609C47.6733 69.4548 53.4304 65.1484 57.579 59.0547C55.7177 60.1715 53.7168 61.1473 51.6009 61.9625C48.7314 66.2705 45.1492 69.4281 41.1582 70.9609ZM70.3959 43.1816C68.5321 48.8629 64.5095 53.8654 59.0547 57.579C59.9982 56.0065 60.8412 54.3343 61.5716 52.5773C65.5975 49.9773 68.662 46.7666 70.3959 43.1816ZM58.1651 58.1651C59.1937 56.5514 60.1128 54.8223 60.9079 52.9951C59.0493 54.1353 57 55.1491 54.7937 56.015C53.9774 57.9184 53.048 59.6933 52.0205 61.3163C54.2096 60.4332 56.2672 59.3749 58.1651 58.1651ZM71.2319 39.3875C70.2243 44.1465 66.8716 48.4676 61.8687 51.8421C62.4775 50.2919 62.9996 48.679 63.4274 47.0133C67.2423 44.8616 69.9778 42.2554 71.2319 39.3875ZM61.2137 52.2724C61.8667 50.6855 62.4273 49.0282 62.8863 47.3115C61.0998 48.2738 59.0924 49.1396 56.9023 49.8906C56.3827 51.8301 55.7575 53.6835 55.0381 55.4332C57.2798 54.5265 59.351 53.4646 61.2137 52.2724ZM71.5467 36.0495C71.4357 39.8973 68.5369 43.5191 63.5779 46.4086C64.3728 43.1135 64.8 39.6191 64.8 36C64.8 32.2267 64.3356 28.589 63.4743 25.1713C67.9279 27.7423 70.7428 30.9001 71.4011 34.2841C71.4851 34.8669 71.534 35.4557 71.5467 36.0495ZM64.35 36C64.35 32.1058 63.8522 28.3641 62.9335 24.8664C62.3979 24.5715 61.8401 24.2848 61.2611 24.0069C59.9224 23.3643 58.4763 22.7722 56.9364 22.2372C58.0599 26.4772 58.68 31.1254 58.68 36C58.68 40.7233 58.0978 45.2341 57.0395 49.3668C58.5409 48.8413 59.9524 48.2613 61.2611 47.6331C61.8791 47.3365 62.4729 47.0298 63.0414 46.7139C63.8911 43.3371 64.35 39.7388 64.35 36ZM70.4664 30.8143C69.0003 28.4854 66.5377 26.3641 63.3166 24.5646C63.0024 23.3914 62.6412 22.2451 62.2358 21.1293C66.1519 23.8515 69.0122 27.1654 70.4664 30.8143ZM62.7712 24.2668C62.4307 23.0447 62.0384 21.8535 61.5978 20.6972C61.4707 20.6133 61.3425 20.53 61.2133 20.4473C59.446 19.3162 57.4913 18.3026 55.3811 17.4272C55.9107 18.7987 56.3834 20.2297 56.7942 21.7125C58.9793 22.4559 60.9842 23.3134 62.7712 24.2668ZM70.9609 30.8418C69.4281 26.8508 66.2705 23.2686 61.9626 20.3991C61.1474 18.2832 60.1715 16.2823 59.0547 14.421C65.1484 18.5696 69.4548 24.3267 70.9609 30.8418ZM61.3164 19.9795C60.4332 17.7904 59.3749 15.7328 58.1651 13.8349C56.2672 12.6251 54.2096 11.5668 52.0205 10.6837C53.2017 12.5494 54.2533 14.616 55.1524 16.8476C57.384 17.7467 59.4506 18.7983 61.3164 19.9795ZM41.1582 1.03912C47.6733 2.5452 53.4305 6.85161 57.579 12.9453C55.7177 11.8285 53.7168 10.8527 51.6009 10.0375C48.7314 5.72952 45.1492 2.57187 41.1582 1.03912ZM41.1857 1.53362C44.8346 2.98779 48.1485 5.84808 50.8707 9.76418C49.7549 9.35876 48.6086 8.99756 47.4354 8.68337C45.6359 5.4623 43.5146 2.99971 41.1857 1.53362ZM47.7332 9.22879C48.9553 9.56935 50.1465 9.9616 51.3028 10.4022C51.3867 10.5293 51.47 10.6575 51.5527 10.7867C52.6838 12.554 53.6974 14.5087 54.5728 16.6189C53.2014 16.0893 51.7703 15.6166 50.2875 15.2058C49.5441 13.0207 48.6866 11.0158 47.7332 9.22879ZM50.4597 15.7215C51.9671 16.1494 53.4189 16.6421 54.8062 17.1938C55.3579 18.5811 55.8506 20.0329 56.2785 21.5403C54.8337 21.0666 53.3134 20.6422 51.728 20.272C51.3578 18.6866 50.9334 17.1662 50.4597 15.7215ZM51.8399 20.7607C53.4402 21.1407 54.9718 21.5765 56.4235 22.0623C57.5855 26.3394 58.23 31.0495 58.23 36C58.23 40.7984 57.6245 45.3709 56.5292 49.5422C55.0715 50.0338 53.5327 50.4747 51.924 50.8593C52.8023 46.8266 53.3341 42.3968 53.4403 37.7348C53.5128 37.1063 53.55 36.4674 53.55 35.82C53.55 35.1381 53.5087 34.4656 53.4284 33.8048C53.2944 29.1651 52.7387 24.7623 51.8399 20.7607ZM52.8456 31.0287C52.6007 27.3575 52.0886 23.8677 51.3528 20.6472C47.3758 19.7386 42.988 19.171 38.3549 19.0266C45.2691 19.8544 50.9239 24.6604 52.8456 31.0287ZM52.9792 33.84C51.9775 25.685 44.8669 19.35 36.225 19.35C26.9485 19.35 19.4364 26.6495 19.3507 35.6641C19.3504 35.735 19.3502 35.806 19.3501 35.8771C19.3816 44.937 26.9146 52.29 36.225 52.29C44.9013 52.29 52.0342 45.9044 52.9909 37.7025C53.0036 37.1384 53.01 36.5708 53.01 36C53.01 35.2746 52.9996 34.5544 52.9792 33.84ZM52.8747 40.5138C50.9814 46.9306 45.3043 51.7814 38.3549 52.6134C43.0211 52.4679 47.4386 51.8933 51.4382 50.9732C52.1581 47.7244 52.6515 44.2084 52.8747 40.5138ZM34.2337 52.6294C29.4978 52.519 25.0087 51.9667 20.9409 51.0591C20.1844 47.6688 19.6749 43.9859 19.4621 40.1114C21.2445 46.77 27.0763 51.8295 34.2337 52.6294ZM18.9001 35.8775C18.9 35.9183 18.9 35.9592 18.9 36C18.9 41.3332 19.4567 46.3956 20.4556 50.9487C18.4129 50.4748 16.48 49.9107 14.6795 49.2675C13.6292 45.1705 13.05 40.6933 13.05 36C13.05 31.1547 13.6673 26.5398 14.7831 22.3357C16.5789 21.699 18.5054 21.1406 20.5401 20.6718C19.5099 25.2263 18.9245 30.3037 18.9008 35.6608C18.9002 35.7138 18.9 35.7669 18.9 35.82C18.9 35.8392 18.9 35.8583 18.9001 35.8775ZM19.4887 31.4305C19.7243 27.5794 20.2536 23.923 21.0268 20.5618C25.0719 19.6655 29.5311 19.1203 34.2336 19.0106C27.1115 19.8066 21.3018 24.8203 19.4887 31.4305ZM51.8155 51.3475C53.4099 50.9726 54.938 50.5429 56.3892 50.0633C55.8495 52.0289 55.2003 53.9022 54.454 55.6645C53.0909 56.1926 51.6674 56.6641 50.1914 57.0738C50.8134 55.282 51.3582 53.3662 51.8155 51.3475ZM50.0087 57.5905C51.4582 57.1983 52.8593 56.747 54.2044 56.2414C53.4169 58.0245 52.5285 59.6886 51.5527 61.2133C51.47 61.3425 51.3867 61.4707 51.3028 61.5978C50.1465 62.0384 48.9553 62.4306 47.7332 62.7712C48.5696 61.2035 49.3322 59.4682 50.0087 57.5905ZM47.4354 63.3166C48.6086 63.0024 49.7549 62.6412 50.8707 62.2358C48.1485 66.1519 44.8346 69.0122 41.1857 70.4664C43.5146 69.0003 45.6359 66.5377 47.4354 63.3166ZM47.9931 61.2611C47.7152 61.8401 47.4285 62.3979 47.1336 62.9335C43.6359 63.8522 39.8942 64.35 36 64.35C32.2612 64.35 28.6629 63.8911 25.2861 63.0414C24.9702 62.4729 24.6635 61.8791 24.3669 61.2611C23.8504 60.1851 23.3664 59.0396 22.9186 57.8317C26.9733 58.8443 31.3852 59.4 36 59.4C40.7659 59.4 45.3155 58.8073 49.4787 57.7307C49.0205 58.9757 48.524 60.1551 47.9931 61.2611ZM36 64.8C32.3809 64.8 28.8865 64.3728 25.5914 63.5779C28.4809 68.5369 32.1027 71.4357 35.9505 71.5467C36.5443 71.534 37.1331 71.4851 37.7159 71.4011C41.0999 70.7428 44.2577 67.9279 46.8287 63.4743C43.411 64.3356 39.7733 64.8 36 64.8ZM22.3897 57.6965C23.0733 59.5795 23.8437 61.318 24.6885 62.8863C22.9718 62.4273 21.3145 61.8667 19.7276 61.2137C18.6907 59.5936 17.7522 57.8156 16.9288 55.905C18.6563 56.5969 20.482 57.1976 22.3897 57.6965ZM24.9867 63.4273C23.321 62.9996 21.7081 62.4774 20.1579 61.8687C23.5324 66.8716 27.8535 70.2243 32.6125 71.2319C29.7446 69.9778 27.1384 67.2423 24.9867 63.4273ZM16.3371 55.6629C17.122 57.54 18.0159 59.2957 19.0049 60.9079C17.1777 60.1128 15.4486 59.1937 13.8349 58.1651C12.8063 56.5514 11.8872 54.8223 11.0922 52.9951C12.7043 53.9841 14.46 54.8781 16.3371 55.6629ZM19.4227 61.5716C17.6657 60.8412 15.9935 59.9982 14.421 59.0547C18.1346 64.5095 23.1371 68.5321 28.8184 70.3959C25.2334 68.662 22.0227 65.5975 19.4227 61.5716ZM10.4284 52.5773C11.1589 54.3343 12.0018 56.0065 12.9453 57.579C7.49055 53.8654 3.46794 48.863 1.60407 43.1817C3.33796 46.7666 6.40254 49.9773 10.4284 52.5773ZM10.7863 52.2724C10.1333 50.6855 9.57268 49.0282 9.11366 47.3115C10.682 48.1563 12.4206 48.9267 14.3035 49.6103C14.8024 51.518 15.4031 53.3437 16.095 55.0712C14.1844 54.2478 12.4064 53.3093 10.7863 52.2724ZM10.1313 51.8421C9.52255 50.2919 9.00039 48.679 8.57265 47.0133C4.75768 44.8616 2.02217 42.2554 0.768088 39.3875C1.77567 44.1465 5.12843 48.4676 10.1313 51.8421ZM10.7389 47.6331C10.1209 47.3365 9.52712 47.0298 8.95859 46.7139C8.10886 43.3371 7.65 39.7388 7.65 36C7.65 32.1058 8.14777 28.3641 9.06651 24.8664C9.60215 24.5715 10.1599 24.2848 10.7389 24.0069C11.8449 23.476 13.0243 22.9795 14.2693 22.5213C13.1927 26.6845 12.6 31.2341 12.6 36C12.6 40.6148 13.1557 45.0267 14.1683 49.0814C12.9605 48.6336 11.8149 48.1496 10.7389 47.6331ZM7.2 36C7.2 32.2267 7.66441 28.589 8.52569 25.1713C4.07211 27.7423 1.25718 30.9001 0.598903 34.284C0.514917 34.8669 0.465975 35.4557 0.45331 36.0495C0.56432 39.8973 3.46311 43.5191 8.4221 46.4086C7.62723 43.1135 7.2 39.6191 7.2 36ZM14.4095 21.9913C12.5318 22.6678 10.7965 23.4304 9.22879 24.2668C9.56935 23.0447 9.9616 21.8535 10.4022 20.6972C10.5293 20.6133 10.6575 20.53 10.7867 20.4473C12.3114 19.4715 13.9755 18.5831 15.7586 17.7956C15.253 19.1407 14.8017 20.5418 14.4095 21.9913ZM8.68337 24.5646C8.99756 23.3914 9.35876 22.2451 9.76418 21.1293C5.84808 23.8515 2.98779 27.1654 1.53362 30.8143C2.9997 28.4854 5.4623 26.3641 8.68337 24.5646ZM15.985 17.2062C14.0816 18.0225 12.3067 18.952 10.6837 19.9795C11.5668 17.7904 12.6251 15.7328 13.8349 13.8349C15.4486 12.8063 17.1777 11.8872 19.0049 11.0922C17.8647 12.9507 16.8509 15 15.985 17.2062ZM10.0375 20.3991C10.8527 18.2832 11.8285 16.2823 12.9453 14.421C6.8516 18.5696 2.5452 24.3267 1.03912 30.8418C2.57187 26.8508 5.72951 23.2686 10.0375 20.3991ZM19.4227 10.4284C17.6657 11.1589 15.9935 12.0018 14.421 12.9453C18.1346 7.49055 23.137 3.46794 28.8183 1.60407C25.2334 3.33796 22.0227 6.40254 19.4227 10.4284ZM19.7276 10.7863C21.3145 10.1333 22.9718 9.57268 24.6885 9.11366C23.7262 10.9002 22.8603 12.9076 22.1094 15.0977C20.1698 15.6173 18.3165 16.2424 16.5668 16.9619C17.4735 14.7201 18.5354 12.649 19.7276 10.7863ZM20.1579 10.1313C21.7081 9.52255 23.321 9.00039 24.9867 8.57265C27.1384 4.75768 29.7446 2.02217 32.6125 0.768088C27.8535 1.77567 23.5324 5.12843 20.1579 10.1313ZM24.3669 10.7389C24.6635 10.1209 24.9702 9.52712 25.2861 8.95859C28.6629 8.10886 32.2612 7.65 36 7.65C39.8942 7.65 43.6359 8.14778 47.1336 9.06652C47.4285 9.60215 47.7152 10.1599 47.9931 10.7389C48.6357 12.0776 49.2278 13.5237 49.7628 15.0636C45.5228 13.94 40.8746 13.32 36 13.32C31.2767 13.32 26.7659 13.9022 22.6332 14.9605C23.1587 13.4591 23.7387 12.0476 24.3669 10.7389ZM36 7.2C39.7733 7.2 43.411 7.66442 46.8287 8.52569C44.2577 4.07212 41.0999 1.25718 37.716 0.598903C37.1331 0.514917 36.5443 0.465975 35.9505 0.45331C32.1027 0.56432 28.4809 3.46311 25.5914 8.4221C28.8865 7.62724 32.3809 7.2 36 7.2ZM36 13.77C40.9505 13.77 45.6606 14.4145 49.9377 15.5765C50.4235 17.0282 50.8593 18.5598 51.2393 20.1601C46.6114 19.1207 41.447 18.54 36 18.54C30.7016 18.54 25.6706 19.0894 21.1407 20.076C21.5253 18.4673 21.9662 16.9285 22.4578 15.4708C26.6291 14.3755 31.2016 13.77 36 13.77ZM36 53.1C41.4819 53.1 46.6776 52.5119 51.3282 51.4599C50.8594 53.4946 50.301 55.4211 49.6643 57.2169C45.4602 58.3326 40.8453 58.95 36 58.95C31.3067 58.95 26.8295 58.3708 22.7325 57.3204C22.0893 55.52 21.5252 53.5871 21.0513 51.5444C25.6044 52.5433 30.6668 53.1 36 53.1ZM20.5645 51.4355C21.027 53.4627 21.5778 55.3855 22.2064 57.1824C20.271 56.6631 18.4234 56.0379 16.6814 55.3186C15.9621 53.5766 15.3369 51.729 14.8176 49.7936C16.6145 50.4223 18.5373 50.973 20.5645 51.4355ZM20.6525 20.1845C18.6338 20.6418 16.718 21.1866 14.9262 21.8086C15.3359 20.3326 15.8074 18.9091 16.3355 17.546C18.0978 16.7997 19.9711 16.1505 21.9367 15.6108C21.4571 17.062 21.0274 18.5901 20.6525 20.1845Z" fill="url(#paint0_linear_500_6803)"/>
<defs>
<linearGradient id="paint0_linear_500_6803" x1="8.1" y1="10.35" x2="59.4" y2="71.1" gradientUnits="userSpaceOnUse">
<stop stop-color="white"/>
<stop offset="0.376612" stop-color="white"/>
<stop offset="1" stop-color="white" stop-opacity="0"/>
</linearGradient>
</defs>
</svg>
