<svg width="72" height="72" viewBox="0 0 72 72" fill="none" xmlns="http://www.w3.org/2000/svg">
<path d="M36 1.5C40.6863 1.5 45.0557 5.20695 48.2832 11.4873C51.4973 17.7417 53.5 26.4176 53.5 36.0273C53.5 45.6369 51.4972 54.3121 48.2832 60.5664C45.0557 66.8469 40.6863 70.5537 36 70.5537C31.3137 70.5537 26.9443 66.8469 23.7168 60.5664C20.5028 54.3121 18.5 45.6369 18.5 36.0273C18.5 26.4176 20.5027 17.7417 23.7168 11.4873C26.9443 5.20695 31.3137 1.5 36 1.5Z" stroke="url(#paint0_linear_612_8)"/>
<path d="M1.5 35.0271C1.5 30.3408 5.20695 25.9714 11.4873 22.7439C17.7417 19.5298 26.4176 17.5271 36.0273 17.5271C45.6369 17.5271 54.3121 19.5299 60.5664 22.7439C66.8469 25.9714 70.5537 30.3408 70.5537 35.0271C70.5537 39.7134 66.8469 44.0828 60.5664 47.3103C54.3121 50.5243 45.6369 52.5271 36.0273 52.5271C26.4176 52.5271 17.7417 50.5244 11.4873 47.3103C5.20695 44.0828 1.5 39.7134 1.5 35.0271Z" stroke="url(#paint1_linear_612_8)"/>
<circle cx="36" cy="36" r="35.5" stroke="url(#paint2_linear_612_8)"/>
<defs>
<linearGradient id="paint0_linear_612_8" x1="36" y1="0.999999" x2="64.6761" y2="61.6295" gradientUnits="userSpaceOnUse">
<stop stop-color="white"/>
<stop offset="1" stop-color="white" stop-opacity="0"/>
</linearGradient>
<linearGradient id="paint1_linear_612_8" x1="0.999999" y1="35.0271" x2="61.6295" y2="6.35097" gradientUnits="userSpaceOnUse">
<stop stop-color="white"/>
<stop offset="1" stop-color="white" stop-opacity="0"/>
</linearGradient>
<linearGradient id="paint2_linear_612_8" x1="10.5" y1="9" x2="58.5" y2="70" gradientUnits="userSpaceOnUse">
<stop stop-color="white"/>
<stop offset="1" stop-color="white" stop-opacity="0"/>
</linearGradient>
</defs>
</svg>
