<svg width="64" height="64" viewBox="0 0 64 64" fill="none" xmlns="http://www.w3.org/2000/svg">
<path fill-rule="evenodd" clip-rule="evenodd" d="M0 64V0H64V64H0ZM1 61.397V1H31.4401L1 61.397ZM9.52769 63H54.4723L32 60.5031L9.52769 63ZM57.068 62.2823L32 55.5179L6.93205 62.2823L32 59.4969L57.068 62.2823ZM32 49.5504L57.8914 61.4687L32 54.4821L6.10865 61.4687L32 49.5504ZM57.4783 60.1777L32 43.5966L6.52169 60.1777L32 48.4496L57.4783 60.1777ZM32 37.6534L56.9377 58.6327L32 42.4034L7.0623 58.6327L32 37.6534ZM56.2979 56.7877L32 31.7184L7.70207 56.7877L32 36.3466L56.2979 56.7877ZM32 25.7896L55.5829 54.6132L32 30.2816L8.41707 54.6132L32 25.7896ZM54.8112 52.0908L32 19.8654L9.18876 52.0908L32 24.2104L54.8112 52.0908ZM32 13.9447L53.9967 49.2092L32 18.1346L10.0033 49.2093L32 13.9447ZM53.1494 45.9615L32 8.02679L10.8505 45.9615L32 12.0553L53.1494 45.9615ZM32 2.11094L52.2769 42.3429L32 5.97321L11.7231 42.3429L32 2.11094ZM63 61.397V1H32.5599L63 61.397Z" fill="url(#paint0_linear_500_7032)"/>
<defs>
<linearGradient id="paint0_linear_500_7032" x1="1" y1="64" x2="64" y2="64" gradientUnits="userSpaceOnUse">
<stop stop-color="white" stop-opacity="0.1"/>
<stop offset="0.49336" stop-color="white"/>
<stop offset="1" stop-color="white" stop-opacity="0.1"/>
</linearGradient>
</defs>
</svg>
