<svg width="64" height="64" viewBox="0 0 64 64" fill="none" xmlns="http://www.w3.org/2000/svg">
<path fill-rule="evenodd" clip-rule="evenodd" d="M64 32C64 14.3269 49.6731 0 32 0C14.3269 0 0 14.3269 0 32C0 49.6731 14.3269 64 32 64C49.6731 64 64 49.6731 64 32ZM28 32C28 46.0433 29.1308 57.9737 30.7036 62.2821C30.4067 61.9741 30.0856 61.5495 29.7469 60.9765C28.86 59.4759 28.0266 57.238 27.3133 54.3849C25.8906 48.6941 25 40.7794 25 32C25 23.2206 25.8906 15.3059 27.3133 9.61512C28.0266 6.76205 28.86 4.52412 29.7469 3.02355C30.0856 2.45045 30.4066 2.02593 30.7036 1.71794C29.1308 6.02625 28 17.9567 28 32ZM34.2531 60.9765C33.9144 61.5496 33.5933 61.9741 33.2963 62.2821C34.8692 57.9737 36 46.0433 36 32C36 17.9567 34.8692 6.02625 33.2963 1.71794C33.5933 2.02592 33.9144 2.45045 34.2531 3.02355C35.14 4.52412 35.9734 6.76205 36.6867 9.61512C38.1094 15.3059 39 23.2206 39 32C39 40.7794 38.1094 48.6941 36.6867 54.3849C35.9734 57.238 35.14 59.4759 34.2531 60.9765ZM29.0786 61.7993C28.7454 61.5237 28.4113 61.1986 28.0773 60.8219C26.7517 59.3267 25.5122 57.1061 24.451 54.2763C22.3314 48.624 21 40.7484 21 32C21 23.2516 22.3314 15.376 24.451 9.72371C25.5122 6.89388 26.7517 4.67329 28.0773 3.17812C28.4113 2.80138 28.7454 2.47627 29.0786 2.20068C26.1052 6.86826 24 18.4507 24 32C24 45.5493 26.1052 57.1317 29.0786 61.7993ZM34.9214 61.7993C35.2546 61.5237 35.5887 61.1986 35.9227 60.8219C37.2483 59.3267 38.4878 57.1061 39.549 54.2763C41.6686 48.624 43 40.7484 43 32C43 23.2516 41.6686 15.376 39.549 9.72371C38.4878 6.89388 37.2483 4.67329 35.9227 3.17812C35.5887 2.80138 35.2546 2.47627 34.9214 2.20067C37.8948 6.86825 40 18.4507 40 32C40 45.5493 37.8948 57.1317 34.9214 61.7993ZM21.5807 54.1802C23.2049 57.4286 25.1228 59.8446 27.184 61.3187C22.9544 56.371 20 45.1055 20 32C20 18.8945 22.9544 7.62899 27.184 2.68133C25.1228 4.15544 23.2049 6.57138 21.5807 9.8198C18.7683 15.4445 17 23.285 17 32C17 40.715 18.7683 48.5555 21.5807 54.1802ZM42.4193 54.1802C40.7951 57.4286 38.8772 59.8446 36.816 61.3187C41.0456 56.371 44 45.1055 44 32C44 18.8945 41.0456 7.62899 36.816 2.68133C38.8772 4.15545 40.7951 6.57138 42.4193 9.8198C45.2317 15.4445 47 23.285 47 32C47 40.715 45.2317 48.5555 42.4193 54.1802ZM25.0718 60.8526C22.7035 59.3276 20.5396 57.0314 18.7059 54.0974C15.2007 48.4891 13 40.6791 13 32C13 23.3209 15.2007 15.5109 18.7059 9.90258C20.5396 6.96861 22.7035 4.67245 25.0718 3.14739C19.7045 8.31201 16 19.2908 16 32C16 44.7092 19.7046 55.688 25.0718 60.8526ZM38.9282 60.8526C41.2965 59.3276 43.4604 57.0314 45.2941 54.0974C48.7993 48.4891 51 40.6791 51 32C51 23.3209 48.7993 15.5109 45.2941 9.90258C43.4604 6.96861 41.2965 4.67244 38.9282 3.14739C44.2954 8.31201 48 19.2908 48 32C48 44.7092 44.2954 55.688 38.9282 60.8526ZM15.8294 54.0274C17.8315 56.6968 20.1802 58.8598 22.7661 60.3927C16.3681 55.055 12 44.3437 12 32C12 19.6563 16.3681 8.94495 22.7661 3.60733C20.1802 5.14024 17.8315 7.30315 15.8294 9.97258C11.6281 15.5743 9 23.3589 9 32C9 40.6411 11.6281 48.4257 15.8294 54.0274ZM48.1706 54.0274C46.1685 56.6969 43.8198 58.8598 41.2339 60.3927C47.6318 55.0551 52 44.3437 52 32C52 19.6563 47.6318 8.94495 41.2339 3.60733C43.8198 5.14023 46.1685 7.30314 48.1706 9.97258C52.3719 15.5743 55 23.3589 55 32C55 40.6411 52.3719 48.4257 48.1706 54.0274ZM20.2616 59.9178C11.2676 54.9219 5 44.3595 5 32C5 19.6405 11.2676 9.07806 20.2615 4.08221C12.9439 9.56383 8 20.0121 8 32C8 43.9879 12.944 54.4362 20.2616 59.9178ZM43.7384 59.9178C52.7323 54.9219 59 44.3595 59 32C59 19.6405 52.7323 9.07806 43.7384 4.08221C51.056 9.56382 56 20.0121 56 32C56 43.9879 51.056 54.4362 43.7384 59.9178ZM1 32C1 43.9483 7.75965 54.3177 17.6633 59.4928C9.48013 53.9072 4 43.685 4 32C4 20.315 9.48012 10.0928 17.6633 4.5072C7.75964 9.68227 1 20.0517 1 32ZM63 32C63 43.9483 56.2404 54.3177 46.3367 59.4928C54.5199 53.9072 60 43.685 60 32C60 20.315 54.5199 10.0928 46.3367 4.5072C56.2404 9.68227 63 20.0517 63 32ZM33.8362 54.5034C34.5534 48.7651 35 40.8085 35 32C35 23.1915 34.5534 15.2349 33.8362 9.49662C33.4766 6.62048 33.0537 4.34003 32.598 2.79813C32.5651 2.68698 32.5325 2.58086 32.5 2.47968V61.5203C32.5325 61.4191 32.5651 61.313 32.598 61.2019C33.0537 59.66 33.4766 57.3795 33.8362 54.5034ZM31.5 2.47968V61.5203C31.4675 61.4191 31.4349 61.313 31.402 61.2019C30.9463 59.66 30.5234 57.3795 30.1639 54.5034C29.4466 48.7651 29 40.8085 29 32C29 23.1915 29.4466 15.2349 30.1639 9.49662C30.5234 6.62048 30.9463 4.34003 31.402 2.79813C31.4349 2.68698 31.4675 2.58086 31.5 2.47968Z" fill="url(#paint0_linear_500_6815)"/>
<defs>
<linearGradient id="paint0_linear_500_6815" x1="18.5" y1="3" x2="42.5" y2="66" gradientUnits="userSpaceOnUse">
<stop stop-color="white"/>
<stop offset="1" stop-color="white" stop-opacity="0"/>
</linearGradient>
</defs>
</svg>
