<svg width="71" height="71" viewBox="0 0 71 71" fill="none" xmlns="http://www.w3.org/2000/svg">
<rect x="0.000976562" y="38.7887" width="54.8538" height="0.685673" transform="rotate(-45 0.000976562 38.7887)" fill="url(#paint0_linear_612_7)"/>
<rect x="0.970642" y="39.7583" width="54.8538" height="0.685673" transform="rotate(-45 0.970642 39.7583)" fill="url(#paint1_linear_612_7)"/>
<rect x="1.94037" y="40.7272" width="54.8538" height="0.685673" transform="rotate(-45 1.94037 40.7272)" fill="url(#paint2_linear_612_7)"/>
<rect x="2.90991" y="41.6974" width="54.8538" height="0.685673" transform="rotate(-45 2.90991 41.6974)" fill="url(#paint3_linear_612_7)"/>
<rect x="3.87952" y="42.667" width="54.8538" height="0.685673" transform="rotate(-45 3.87952 42.667)" fill="url(#paint4_linear_612_7)"/>
<rect x="4.84918" y="43.6371" width="54.8538" height="0.685673" transform="rotate(-45 4.84918 43.6371)" fill="url(#paint5_linear_612_7)"/>
<rect x="5.81903" y="44.6067" width="54.8538" height="0.685673" transform="rotate(-45 5.81903 44.6067)" fill="url(#paint6_linear_612_7)"/>
<rect x="6.78864" y="45.5762" width="54.8538" height="0.685673" transform="rotate(-45 6.78864 45.5762)" fill="url(#paint7_linear_612_7)"/>
<rect x="7.7583" y="46.5458" width="54.8538" height="0.685673" transform="rotate(-45 7.7583 46.5458)" fill="url(#paint8_linear_612_7)"/>
<rect x="8.72784" y="47.5154" width="54.8538" height="0.685673" transform="rotate(-45 8.72784 47.5154)" fill="url(#paint9_linear_612_7)"/>
<rect x="9.69775" y="48.4855" width="54.8538" height="0.685673" transform="rotate(-45 9.69775 48.4855)" fill="url(#paint10_linear_612_7)"/>
<rect x="10.6674" y="49.4551" width="54.8538" height="0.685673" transform="rotate(-45 10.6674 49.4551)" fill="url(#paint11_linear_612_7)"/>
<rect x="11.6371" y="50.4246" width="54.8538" height="0.685673" transform="rotate(-45 11.6371 50.4246)" fill="url(#paint12_linear_612_7)"/>
<rect x="12.6069" y="51.3942" width="54.8538" height="0.685673" transform="rotate(-45 12.6069 51.3942)" fill="url(#paint13_linear_612_7)"/>
<rect x="13.5765" y="52.3643" width="54.8538" height="0.685673" transform="rotate(-45 13.5765 52.3643)" fill="url(#paint14_linear_612_7)"/>
<rect x="14.5464" y="53.3333" width="54.8538" height="0.685673" transform="rotate(-45 14.5464 53.3333)" fill="url(#paint15_linear_612_7)"/>
<rect x="15.516" y="54.3035" width="54.8538" height="0.685673" transform="rotate(-45 15.516 54.3035)" fill="url(#paint16_linear_612_7)"/>
<rect x="16.4857" y="55.2736" width="54.8538" height="0.685673" transform="rotate(-45 16.4857 55.2736)" fill="url(#paint17_linear_612_7)"/>
<rect x="17.4554" y="56.2432" width="54.8538" height="0.685673" transform="rotate(-45 17.4554 56.2432)" fill="url(#paint18_linear_612_7)"/>
<rect x="18.4249" y="57.2127" width="54.8538" height="0.685673" transform="rotate(-45 18.4249 57.2127)" fill="url(#paint19_linear_612_7)"/>
<rect x="19.3945" y="58.1823" width="54.8538" height="0.685673" transform="rotate(-45 19.3945 58.1823)" fill="url(#paint20_linear_612_7)"/>
<rect x="20.3642" y="59.1519" width="54.8538" height="0.685673" transform="rotate(-45 20.3642 59.1519)" fill="url(#paint21_linear_612_7)"/>
<rect x="21.3339" y="60.122" width="54.8538" height="0.685673" transform="rotate(-45 21.3339 60.122)" fill="url(#paint22_linear_612_7)"/>
<rect x="22.3038" y="61.0916" width="54.8538" height="0.685673" transform="rotate(-45 22.3038 61.0916)" fill="url(#paint23_linear_612_7)"/>
<rect x="23.2733" y="62.0611" width="54.8538" height="0.685673" transform="rotate(-45 23.2733 62.0611)" fill="url(#paint24_linear_612_7)"/>
<rect x="24.243" y="63.0307" width="54.8538" height="0.685673" transform="rotate(-45 24.243 63.0307)" fill="url(#paint25_linear_612_7)"/>
<rect x="25.2126" y="64.0002" width="54.8538" height="0.685673" transform="rotate(-45 25.2126 64.0002)" fill="url(#paint26_linear_612_7)"/>
<rect x="26.1824" y="64.9704" width="54.8538" height="0.685673" transform="rotate(-45 26.1824 64.9704)" fill="url(#paint27_linear_612_7)"/>
<rect x="27.1522" y="65.94" width="54.8538" height="0.685673" transform="rotate(-45 27.1522 65.94)" fill="url(#paint28_linear_612_7)"/>
<rect x="28.1216" y="66.9095" width="54.8538" height="0.685673" transform="rotate(-45 28.1216 66.9095)" fill="url(#paint29_linear_612_7)"/>
<rect x="29.0914" y="67.8797" width="54.8538" height="0.685673" transform="rotate(-45 29.0914 67.8797)" fill="url(#paint30_linear_612_7)"/>
<rect x="30.0612" y="68.8486" width="54.8538" height="0.685673" transform="rotate(-45 30.0612 68.8486)" fill="url(#paint31_linear_612_7)"/>
<rect x="31.0308" y="69.8188" width="54.8538" height="0.685673" transform="rotate(-45 31.0308 69.8188)" fill="url(#paint32_linear_612_7)"/>
<rect x="38.7881" y="70.3033" width="54.8538" height="0.685673" transform="rotate(-135 38.7881 70.3033)" fill="url(#paint33_linear_612_7)"/>
<rect x="39.7579" y="69.3332" width="54.8538" height="0.685673" transform="rotate(-135 39.7579 69.3332)" fill="url(#paint34_linear_612_7)"/>
<rect x="40.7275" y="68.3637" width="54.8538" height="0.685673" transform="rotate(-135 40.7275 68.3637)" fill="url(#paint35_linear_612_7)"/>
<rect x="41.6973" y="67.3935" width="54.8538" height="0.685673" transform="rotate(-135 41.6973 67.3935)" fill="url(#paint36_linear_612_7)"/>
<rect x="42.667" y="66.424" width="54.8538" height="0.685673" transform="rotate(-135 42.667 66.424)" fill="url(#paint37_linear_612_7)"/>
<rect x="43.6362" y="65.4544" width="54.8538" height="0.685673" transform="rotate(-135 43.6362 65.4544)" fill="url(#paint38_linear_612_7)"/>
<rect x="44.6064" y="64.4848" width="54.8538" height="0.685673" transform="rotate(-135 44.6064 64.4848)" fill="url(#paint39_linear_612_7)"/>
<rect x="45.5758" y="63.5153" width="54.8538" height="0.685673" transform="rotate(-135 45.5758 63.5153)" fill="url(#paint40_linear_612_7)"/>
<rect x="46.5455" y="62.5451" width="54.8538" height="0.685673" transform="rotate(-135 46.5455 62.5451)" fill="url(#paint41_linear_612_7)"/>
<rect x="47.5155" y="61.5756" width="54.8538" height="0.685673" transform="rotate(-135 47.5155 61.5756)" fill="url(#paint42_linear_612_7)"/>
<rect x="48.4847" y="60.606" width="54.8538" height="0.685673" transform="rotate(-135 48.4847 60.606)" fill="url(#paint43_linear_612_7)"/>
<rect x="49.4547" y="59.6364" width="54.8538" height="0.685673" transform="rotate(-135 49.4547 59.6364)" fill="url(#paint44_linear_612_7)"/>
<rect x="50.4243" y="58.6669" width="54.8538" height="0.685673" transform="rotate(-135 50.4243 58.6669)" fill="url(#paint45_linear_612_7)"/>
<rect x="51.3943" y="57.6961" width="54.8538" height="0.685673" transform="rotate(-135 51.3943 57.6961)" fill="url(#paint46_linear_612_7)"/>
<rect x="52.3638" y="56.7272" width="54.8538" height="0.685673" transform="rotate(-135 52.3638 56.7272)" fill="url(#paint47_linear_612_7)"/>
<rect x="53.3334" y="55.7576" width="54.8538" height="0.685673" transform="rotate(-135 53.3334 55.7576)" fill="url(#paint48_linear_612_7)"/>
<rect x="54.3032" y="54.7881" width="54.8538" height="0.685673" transform="rotate(-135 54.3032 54.7881)" fill="url(#paint49_linear_612_7)"/>
<rect x="55.2729" y="53.8179" width="54.8538" height="0.685673" transform="rotate(-135 55.2729 53.8179)" fill="url(#paint50_linear_612_7)"/>
<rect x="56.2424" y="52.8477" width="54.8538" height="0.685673" transform="rotate(-135 56.2424 52.8477)" fill="url(#paint51_linear_612_7)"/>
<rect x="57.212" y="51.8794" width="54.8538" height="0.685673" transform="rotate(-135 57.212 51.8794)" fill="url(#paint52_linear_612_7)"/>
<rect x="58.1815" y="50.9092" width="54.8538" height="0.685673" transform="rotate(-135 58.1815 50.9092)" fill="url(#paint53_linear_612_7)"/>
<rect x="59.1514" y="49.9391" width="54.8538" height="0.685673" transform="rotate(-135 59.1514 49.9391)" fill="url(#paint54_linear_612_7)"/>
<rect x="60.1214" y="48.9695" width="54.8538" height="0.685673" transform="rotate(-135 60.1214 48.9695)" fill="url(#paint55_linear_612_7)"/>
<rect x="61.0911" y="47.9993" width="54.8538" height="0.685673" transform="rotate(-135 61.0911 47.9993)" fill="url(#paint56_linear_612_7)"/>
<rect x="62.0605" y="47.0304" width="54.8538" height="0.685673" transform="rotate(-135 62.0605 47.0304)" fill="url(#paint57_linear_612_7)"/>
<rect x="63.0302" y="46.0608" width="54.8538" height="0.685673" transform="rotate(-135 63.0302 46.0608)" fill="url(#paint58_linear_612_7)"/>
<rect x="64.0002" y="45.0907" width="54.8538" height="0.685673" transform="rotate(-135 64.0002 45.0907)" fill="url(#paint59_linear_612_7)"/>
<rect x="64.97" y="44.1211" width="54.8538" height="0.685673" transform="rotate(-135 64.97 44.1211)" fill="url(#paint60_linear_612_7)"/>
<rect x="65.9398" y="43.151" width="54.8538" height="0.685673" transform="rotate(-135 65.9398 43.151)" fill="url(#paint61_linear_612_7)"/>
<rect x="66.9092" y="42.182" width="54.8538" height="0.685673" transform="rotate(-135 66.9092 42.182)" fill="url(#paint62_linear_612_7)"/>
<rect x="67.8786" y="41.2119" width="54.8538" height="0.685673" transform="rotate(-135 67.8786 41.2119)" fill="url(#paint63_linear_612_7)"/>
<rect x="68.8484" y="40.2423" width="54.8538" height="0.685673" transform="rotate(-135 68.8484 40.2423)" fill="url(#paint64_linear_612_7)"/>
<rect x="69.8182" y="39.2727" width="54.8538" height="0.685673" transform="rotate(-135 69.8182 39.2727)" fill="url(#paint65_linear_612_7)"/>
<defs>
<linearGradient id="paint0_linear_612_7" x1="1.71516" y1="38.794" x2="1.74558" y2="40.4355" gradientUnits="userSpaceOnUse">
<stop stop-color="white"/>
<stop offset="1" stop-color="white" stop-opacity="0"/>
</linearGradient>
<linearGradient id="paint1_linear_612_7" x1="2.68482" y1="39.7636" x2="2.71525" y2="41.4051" gradientUnits="userSpaceOnUse">
<stop stop-color="white"/>
<stop offset="1" stop-color="white" stop-opacity="0"/>
</linearGradient>
<linearGradient id="paint2_linear_612_7" x1="3.65455" y1="40.7325" x2="3.68497" y2="42.374" gradientUnits="userSpaceOnUse">
<stop stop-color="white"/>
<stop offset="1" stop-color="white" stop-opacity="0"/>
</linearGradient>
<linearGradient id="paint3_linear_612_7" x1="4.62409" y1="41.7027" x2="4.65452" y2="43.3442" gradientUnits="userSpaceOnUse">
<stop stop-color="white"/>
<stop offset="1" stop-color="white" stop-opacity="0"/>
</linearGradient>
<linearGradient id="paint4_linear_612_7" x1="5.5937" y1="42.6723" x2="5.62412" y2="44.3137" gradientUnits="userSpaceOnUse">
<stop stop-color="white"/>
<stop offset="1" stop-color="white" stop-opacity="0"/>
</linearGradient>
<linearGradient id="paint5_linear_612_7" x1="6.56336" y1="43.6424" x2="6.59379" y2="45.2839" gradientUnits="userSpaceOnUse">
<stop stop-color="white"/>
<stop offset="1" stop-color="white" stop-opacity="0"/>
</linearGradient>
<linearGradient id="paint6_linear_612_7" x1="7.53321" y1="44.612" x2="7.56364" y2="46.2534" gradientUnits="userSpaceOnUse">
<stop stop-color="white"/>
<stop offset="1" stop-color="white" stop-opacity="0"/>
</linearGradient>
<linearGradient id="paint7_linear_612_7" x1="8.50282" y1="45.5815" x2="8.53324" y2="47.223" gradientUnits="userSpaceOnUse">
<stop stop-color="white"/>
<stop offset="1" stop-color="white" stop-opacity="0"/>
</linearGradient>
<linearGradient id="paint8_linear_612_7" x1="9.47248" y1="46.5511" x2="9.50291" y2="48.1926" gradientUnits="userSpaceOnUse">
<stop stop-color="white"/>
<stop offset="1" stop-color="white" stop-opacity="0"/>
</linearGradient>
<linearGradient id="paint9_linear_612_7" x1="10.442" y1="47.5206" x2="10.4725" y2="49.1621" gradientUnits="userSpaceOnUse">
<stop stop-color="white"/>
<stop offset="1" stop-color="white" stop-opacity="0"/>
</linearGradient>
<linearGradient id="paint10_linear_612_7" x1="11.4119" y1="48.4908" x2="11.4424" y2="50.1323" gradientUnits="userSpaceOnUse">
<stop stop-color="white"/>
<stop offset="1" stop-color="white" stop-opacity="0"/>
</linearGradient>
<linearGradient id="paint11_linear_612_7" x1="12.3816" y1="49.4604" x2="12.412" y2="51.1018" gradientUnits="userSpaceOnUse">
<stop stop-color="white"/>
<stop offset="1" stop-color="white" stop-opacity="0"/>
</linearGradient>
<linearGradient id="paint12_linear_612_7" x1="13.3513" y1="50.4299" x2="13.3818" y2="52.0714" gradientUnits="userSpaceOnUse">
<stop stop-color="white"/>
<stop offset="1" stop-color="white" stop-opacity="0"/>
</linearGradient>
<linearGradient id="paint13_linear_612_7" x1="14.3211" y1="51.3995" x2="14.3515" y2="53.0409" gradientUnits="userSpaceOnUse">
<stop stop-color="white"/>
<stop offset="1" stop-color="white" stop-opacity="0"/>
</linearGradient>
<linearGradient id="paint14_linear_612_7" x1="15.2907" y1="52.3696" x2="15.3211" y2="54.0111" gradientUnits="userSpaceOnUse">
<stop stop-color="white"/>
<stop offset="1" stop-color="white" stop-opacity="0"/>
</linearGradient>
<linearGradient id="paint15_linear_612_7" x1="16.2606" y1="53.3386" x2="16.2911" y2="54.9801" gradientUnits="userSpaceOnUse">
<stop stop-color="white"/>
<stop offset="1" stop-color="white" stop-opacity="0"/>
</linearGradient>
<linearGradient id="paint16_linear_612_7" x1="17.2302" y1="54.3087" x2="17.2606" y2="55.9502" gradientUnits="userSpaceOnUse">
<stop stop-color="white"/>
<stop offset="1" stop-color="white" stop-opacity="0"/>
</linearGradient>
<linearGradient id="paint17_linear_612_7" x1="18.1998" y1="55.2789" x2="18.2303" y2="56.9204" gradientUnits="userSpaceOnUse">
<stop stop-color="white"/>
<stop offset="1" stop-color="white" stop-opacity="0"/>
</linearGradient>
<linearGradient id="paint18_linear_612_7" x1="19.1696" y1="56.2485" x2="19.2" y2="57.8899" gradientUnits="userSpaceOnUse">
<stop stop-color="white"/>
<stop offset="1" stop-color="white" stop-opacity="0"/>
</linearGradient>
<linearGradient id="paint19_linear_612_7" x1="20.1391" y1="57.218" x2="20.1695" y2="58.8595" gradientUnits="userSpaceOnUse">
<stop stop-color="white"/>
<stop offset="1" stop-color="white" stop-opacity="0"/>
</linearGradient>
<linearGradient id="paint20_linear_612_7" x1="21.1087" y1="58.1876" x2="21.1391" y2="59.8291" gradientUnits="userSpaceOnUse">
<stop stop-color="white"/>
<stop offset="1" stop-color="white" stop-opacity="0"/>
</linearGradient>
<linearGradient id="paint21_linear_612_7" x1="22.0784" y1="59.1571" x2="22.1088" y2="60.7986" gradientUnits="userSpaceOnUse">
<stop stop-color="white"/>
<stop offset="1" stop-color="white" stop-opacity="0"/>
</linearGradient>
<linearGradient id="paint22_linear_612_7" x1="23.0481" y1="60.1273" x2="23.0785" y2="61.7688" gradientUnits="userSpaceOnUse">
<stop stop-color="white"/>
<stop offset="1" stop-color="white" stop-opacity="0"/>
</linearGradient>
<linearGradient id="paint23_linear_612_7" x1="24.018" y1="61.0968" x2="24.0484" y2="62.7383" gradientUnits="userSpaceOnUse">
<stop stop-color="white"/>
<stop offset="1" stop-color="white" stop-opacity="0"/>
</linearGradient>
<linearGradient id="paint24_linear_612_7" x1="24.9875" y1="62.0664" x2="25.0179" y2="63.7079" gradientUnits="userSpaceOnUse">
<stop stop-color="white"/>
<stop offset="1" stop-color="white" stop-opacity="0"/>
</linearGradient>
<linearGradient id="paint25_linear_612_7" x1="25.9572" y1="63.036" x2="25.9876" y2="64.6774" gradientUnits="userSpaceOnUse">
<stop stop-color="white"/>
<stop offset="1" stop-color="white" stop-opacity="0"/>
</linearGradient>
<linearGradient id="paint26_linear_612_7" x1="26.9268" y1="64.0055" x2="26.9572" y2="65.647" gradientUnits="userSpaceOnUse">
<stop stop-color="white"/>
<stop offset="1" stop-color="white" stop-opacity="0"/>
</linearGradient>
<linearGradient id="paint27_linear_612_7" x1="27.8966" y1="64.9757" x2="27.927" y2="66.6172" gradientUnits="userSpaceOnUse">
<stop stop-color="white"/>
<stop offset="1" stop-color="white" stop-opacity="0"/>
</linearGradient>
<linearGradient id="paint28_linear_612_7" x1="28.8663" y1="65.9452" x2="28.8968" y2="67.5867" gradientUnits="userSpaceOnUse">
<stop stop-color="white"/>
<stop offset="1" stop-color="white" stop-opacity="0"/>
</linearGradient>
<linearGradient id="paint29_linear_612_7" x1="29.8358" y1="66.9148" x2="29.8662" y2="68.5563" gradientUnits="userSpaceOnUse">
<stop stop-color="white"/>
<stop offset="1" stop-color="white" stop-opacity="0"/>
</linearGradient>
<linearGradient id="paint30_linear_612_7" x1="30.8056" y1="67.8849" x2="30.836" y2="69.5264" gradientUnits="userSpaceOnUse">
<stop stop-color="white"/>
<stop offset="1" stop-color="white" stop-opacity="0"/>
</linearGradient>
<linearGradient id="paint31_linear_612_7" x1="31.7753" y1="68.8539" x2="31.8058" y2="70.4954" gradientUnits="userSpaceOnUse">
<stop stop-color="white"/>
<stop offset="1" stop-color="white" stop-opacity="0"/>
</linearGradient>
<linearGradient id="paint32_linear_612_7" x1="32.745" y1="69.8241" x2="32.7754" y2="71.4655" gradientUnits="userSpaceOnUse">
<stop stop-color="white"/>
<stop offset="1" stop-color="white" stop-opacity="0"/>
</linearGradient>
<linearGradient id="paint33_linear_612_7" x1="92.9563" y1="70.3033" x2="92.9399" y2="71.5526" gradientUnits="userSpaceOnUse">
<stop stop-color="white"/>
<stop offset="1" stop-color="white" stop-opacity="0"/>
</linearGradient>
<linearGradient id="paint34_linear_612_7" x1="93.926" y1="69.3332" x2="93.9096" y2="70.5826" gradientUnits="userSpaceOnUse">
<stop stop-color="white"/>
<stop offset="1" stop-color="white" stop-opacity="0"/>
</linearGradient>
<linearGradient id="paint35_linear_612_7" x1="94.8957" y1="68.3637" x2="94.8793" y2="69.6131" gradientUnits="userSpaceOnUse">
<stop stop-color="white"/>
<stop offset="1" stop-color="white" stop-opacity="0"/>
</linearGradient>
<linearGradient id="paint36_linear_612_7" x1="95.8654" y1="67.3935" x2="95.849" y2="68.6429" gradientUnits="userSpaceOnUse">
<stop stop-color="white"/>
<stop offset="1" stop-color="white" stop-opacity="0"/>
</linearGradient>
<linearGradient id="paint37_linear_612_7" x1="96.8351" y1="66.424" x2="96.8187" y2="67.6733" gradientUnits="userSpaceOnUse">
<stop stop-color="white"/>
<stop offset="1" stop-color="white" stop-opacity="0"/>
</linearGradient>
<linearGradient id="paint38_linear_612_7" x1="97.8044" y1="65.4544" x2="97.788" y2="66.7038" gradientUnits="userSpaceOnUse">
<stop stop-color="white"/>
<stop offset="1" stop-color="white" stop-opacity="0"/>
</linearGradient>
<linearGradient id="paint39_linear_612_7" x1="98.7745" y1="64.4848" x2="98.7581" y2="65.7342" gradientUnits="userSpaceOnUse">
<stop stop-color="white"/>
<stop offset="1" stop-color="white" stop-opacity="0"/>
</linearGradient>
<linearGradient id="paint40_linear_612_7" x1="99.744" y1="63.5153" x2="99.7275" y2="64.7647" gradientUnits="userSpaceOnUse">
<stop stop-color="white"/>
<stop offset="1" stop-color="white" stop-opacity="0"/>
</linearGradient>
<linearGradient id="paint41_linear_612_7" x1="100.714" y1="62.5451" x2="100.697" y2="63.7945" gradientUnits="userSpaceOnUse">
<stop stop-color="white"/>
<stop offset="1" stop-color="white" stop-opacity="0"/>
</linearGradient>
<linearGradient id="paint42_linear_612_7" x1="101.684" y1="61.5756" x2="101.667" y2="62.825" gradientUnits="userSpaceOnUse">
<stop stop-color="white"/>
<stop offset="1" stop-color="white" stop-opacity="0"/>
</linearGradient>
<linearGradient id="paint43_linear_612_7" x1="102.653" y1="60.606" x2="102.636" y2="61.8554" gradientUnits="userSpaceOnUse">
<stop stop-color="white"/>
<stop offset="1" stop-color="white" stop-opacity="0"/>
</linearGradient>
<linearGradient id="paint44_linear_612_7" x1="103.623" y1="59.6364" x2="103.606" y2="60.8858" gradientUnits="userSpaceOnUse">
<stop stop-color="white"/>
<stop offset="1" stop-color="white" stop-opacity="0"/>
</linearGradient>
<linearGradient id="paint45_linear_612_7" x1="104.592" y1="58.6669" x2="104.576" y2="59.9163" gradientUnits="userSpaceOnUse">
<stop stop-color="white"/>
<stop offset="1" stop-color="white" stop-opacity="0"/>
</linearGradient>
<linearGradient id="paint46_linear_612_7" x1="105.562" y1="57.6961" x2="105.546" y2="58.9455" gradientUnits="userSpaceOnUse">
<stop stop-color="white"/>
<stop offset="1" stop-color="white" stop-opacity="0"/>
</linearGradient>
<linearGradient id="paint47_linear_612_7" x1="106.532" y1="56.7272" x2="106.516" y2="57.9766" gradientUnits="userSpaceOnUse">
<stop stop-color="white"/>
<stop offset="1" stop-color="white" stop-opacity="0"/>
</linearGradient>
<linearGradient id="paint48_linear_612_7" x1="107.502" y1="55.7576" x2="107.485" y2="57.007" gradientUnits="userSpaceOnUse">
<stop stop-color="white"/>
<stop offset="1" stop-color="white" stop-opacity="0"/>
</linearGradient>
<linearGradient id="paint49_linear_612_7" x1="108.471" y1="54.7881" x2="108.455" y2="56.0375" gradientUnits="userSpaceOnUse">
<stop stop-color="white"/>
<stop offset="1" stop-color="white" stop-opacity="0"/>
</linearGradient>
<linearGradient id="paint50_linear_612_7" x1="109.441" y1="53.8179" x2="109.425" y2="55.0673" gradientUnits="userSpaceOnUse">
<stop stop-color="white"/>
<stop offset="1" stop-color="white" stop-opacity="0"/>
</linearGradient>
<linearGradient id="paint51_linear_612_7" x1="110.411" y1="52.8477" x2="110.394" y2="54.0971" gradientUnits="userSpaceOnUse">
<stop stop-color="white"/>
<stop offset="1" stop-color="white" stop-opacity="0"/>
</linearGradient>
<linearGradient id="paint52_linear_612_7" x1="111.38" y1="51.8794" x2="111.364" y2="53.1288" gradientUnits="userSpaceOnUse">
<stop stop-color="white"/>
<stop offset="1" stop-color="white" stop-opacity="0"/>
</linearGradient>
<linearGradient id="paint53_linear_612_7" x1="112.35" y1="50.9092" x2="112.333" y2="52.1586" gradientUnits="userSpaceOnUse">
<stop stop-color="white"/>
<stop offset="1" stop-color="white" stop-opacity="0"/>
</linearGradient>
<linearGradient id="paint54_linear_612_7" x1="113.32" y1="49.9391" x2="113.303" y2="51.1885" gradientUnits="userSpaceOnUse">
<stop stop-color="white"/>
<stop offset="1" stop-color="white" stop-opacity="0"/>
</linearGradient>
<linearGradient id="paint55_linear_612_7" x1="114.29" y1="48.9695" x2="114.273" y2="50.2189" gradientUnits="userSpaceOnUse">
<stop stop-color="white"/>
<stop offset="1" stop-color="white" stop-opacity="0"/>
</linearGradient>
<linearGradient id="paint56_linear_612_7" x1="115.259" y1="47.9993" x2="115.243" y2="49.2487" gradientUnits="userSpaceOnUse">
<stop stop-color="white"/>
<stop offset="1" stop-color="white" stop-opacity="0"/>
</linearGradient>
<linearGradient id="paint57_linear_612_7" x1="116.229" y1="47.0304" x2="116.212" y2="48.2798" gradientUnits="userSpaceOnUse">
<stop stop-color="white"/>
<stop offset="1" stop-color="white" stop-opacity="0"/>
</linearGradient>
<linearGradient id="paint58_linear_612_7" x1="117.198" y1="46.0608" x2="117.182" y2="47.3102" gradientUnits="userSpaceOnUse">
<stop stop-color="white"/>
<stop offset="1" stop-color="white" stop-opacity="0"/>
</linearGradient>
<linearGradient id="paint59_linear_612_7" x1="118.168" y1="45.0907" x2="118.152" y2="46.3401" gradientUnits="userSpaceOnUse">
<stop stop-color="white"/>
<stop offset="1" stop-color="white" stop-opacity="0"/>
</linearGradient>
<linearGradient id="paint60_linear_612_7" x1="119.138" y1="44.1211" x2="119.122" y2="45.3705" gradientUnits="userSpaceOnUse">
<stop stop-color="white"/>
<stop offset="1" stop-color="white" stop-opacity="0"/>
</linearGradient>
<linearGradient id="paint61_linear_612_7" x1="120.108" y1="43.151" x2="120.092" y2="44.4004" gradientUnits="userSpaceOnUse">
<stop stop-color="white"/>
<stop offset="1" stop-color="white" stop-opacity="0"/>
</linearGradient>
<linearGradient id="paint62_linear_612_7" x1="121.077" y1="42.182" x2="121.061" y2="43.4314" gradientUnits="userSpaceOnUse">
<stop stop-color="white"/>
<stop offset="1" stop-color="white" stop-opacity="0"/>
</linearGradient>
<linearGradient id="paint63_linear_612_7" x1="122.047" y1="41.2119" x2="122.03" y2="42.4612" gradientUnits="userSpaceOnUse">
<stop stop-color="white"/>
<stop offset="1" stop-color="white" stop-opacity="0"/>
</linearGradient>
<linearGradient id="paint64_linear_612_7" x1="123.017" y1="40.2423" x2="123" y2="41.4917" gradientUnits="userSpaceOnUse">
<stop stop-color="white"/>
<stop offset="1" stop-color="white" stop-opacity="0"/>
</linearGradient>
<linearGradient id="paint65_linear_612_7" x1="123.986" y1="39.2727" x2="123.97" y2="40.5221" gradientUnits="userSpaceOnUse">
<stop stop-color="white"/>
<stop offset="1" stop-color="white" stop-opacity="0"/>
</linearGradient>
</defs>
</svg>
