<svg width="64" height="64" viewBox="0 0 64 64" fill="none" xmlns="http://www.w3.org/2000/svg">
<path d="M0 0H1.14286V55H0V0Z" fill="url(#paint0_linear_612_9)"/>
<path d="M2.28571 0H3.42857V55H2.28571V0Z" fill="url(#paint1_linear_612_9)"/>
<path d="M5.71429 0V55H4.57143V0H5.71429Z" fill="url(#paint2_linear_612_9)"/>
<path d="M6.85714 0H8V55H6.85714V0Z" fill="url(#paint3_linear_612_9)"/>
<path d="M56 9H57.1429V64H56V9Z" fill="url(#paint4_linear_612_9)"/>
<path d="M58.2857 9H59.4286V64H58.2857V9Z" fill="url(#paint5_linear_612_9)"/>
<path d="M61.7143 9V64H60.5714V9H61.7143Z" fill="url(#paint6_linear_612_9)"/>
<path d="M62.8571 9H64V64H62.8571V9Z" fill="url(#paint7_linear_612_9)"/>
<path d="M9 0V1.14286H64V0H9Z" fill="url(#paint8_linear_612_9)"/>
<path d="M64 2.28571H9V3.42857H64V2.28571Z" fill="url(#paint9_linear_612_9)"/>
<path d="M9 4.57143V5.71429H64V4.57143H9Z" fill="url(#paint10_linear_612_9)"/>
<path d="M9 6.85714V8H64V6.85714H9Z" fill="url(#paint11_linear_612_9)"/>
<path d="M0 57.1429V56H55V57.1429H0Z" fill="url(#paint12_linear_612_9)"/>
<path d="M0 58.2857H55V59.4286H0V58.2857Z" fill="url(#paint13_linear_612_9)"/>
<path d="M0 61.7143V60.5714H55V61.7143H0Z" fill="url(#paint14_linear_612_9)"/>
<path d="M0 64V62.8571H55V64H0Z" fill="url(#paint15_linear_612_9)"/>
<path d="M12 12H12.7143V46.375H12V12Z" fill="url(#paint16_linear_612_9)"/>
<path d="M13.4286 12H14.1429V46.375H13.4286V12Z" fill="url(#paint17_linear_612_9)"/>
<path d="M15.5714 12V46.375H14.8571V12H15.5714Z" fill="url(#paint18_linear_612_9)"/>
<path d="M16.2857 12H17V46.375H16.2857V12Z" fill="url(#paint19_linear_612_9)"/>
<path d="M47 17.625H47.7143V52H47V17.625Z" fill="url(#paint20_linear_612_9)"/>
<path d="M48.4286 17.625H49.1429V52H48.4286V17.625Z" fill="url(#paint21_linear_612_9)"/>
<path d="M50.5714 17.625V52H49.8571V17.625H50.5714Z" fill="url(#paint22_linear_612_9)"/>
<path d="M51.2857 17.625H52V52H51.2857V17.625Z" fill="url(#paint23_linear_612_9)"/>
<path d="M17.625 12V12.7143H52V12H17.625Z" fill="url(#paint24_linear_612_9)"/>
<path d="M52 13.4286H17.625V14.1429H52V13.4286Z" fill="url(#paint25_linear_612_9)"/>
<path d="M17.625 14.8571V15.5714H52V14.8571H17.625Z" fill="url(#paint26_linear_612_9)"/>
<path d="M17.625 16.2857V17H52V16.2857H17.625Z" fill="url(#paint27_linear_612_9)"/>
<path d="M12 47.7143V47H46.375V47.7143H12Z" fill="url(#paint28_linear_612_9)"/>
<path d="M12 48.4286H46.375V49.1429H12V48.4286Z" fill="url(#paint29_linear_612_9)"/>
<path d="M12 50.5714V49.8571H46.375V50.5714H12Z" fill="url(#paint30_linear_612_9)"/>
<path d="M12 52V51.2857H46.375V52H12Z" fill="url(#paint31_linear_612_9)"/>
<defs>
<linearGradient id="paint0_linear_612_9" x1="1" y1="-1.74902e-06" x2="65" y2="68" gradientUnits="userSpaceOnUse">
<stop stop-color="white"/>
<stop offset="1" stop-color="white" stop-opacity="0"/>
</linearGradient>
<linearGradient id="paint1_linear_612_9" x1="1" y1="-1.74902e-06" x2="65" y2="68" gradientUnits="userSpaceOnUse">
<stop stop-color="white"/>
<stop offset="1" stop-color="white" stop-opacity="0"/>
</linearGradient>
<linearGradient id="paint2_linear_612_9" x1="1" y1="-1.74902e-06" x2="65" y2="68" gradientUnits="userSpaceOnUse">
<stop stop-color="white"/>
<stop offset="1" stop-color="white" stop-opacity="0"/>
</linearGradient>
<linearGradient id="paint3_linear_612_9" x1="1" y1="-1.74902e-06" x2="65" y2="68" gradientUnits="userSpaceOnUse">
<stop stop-color="white"/>
<stop offset="1" stop-color="white" stop-opacity="0"/>
</linearGradient>
<linearGradient id="paint4_linear_612_9" x1="1" y1="-1.74902e-06" x2="65" y2="68" gradientUnits="userSpaceOnUse">
<stop stop-color="white"/>
<stop offset="1" stop-color="white" stop-opacity="0"/>
</linearGradient>
<linearGradient id="paint5_linear_612_9" x1="1" y1="-1.74902e-06" x2="65" y2="68" gradientUnits="userSpaceOnUse">
<stop stop-color="white"/>
<stop offset="1" stop-color="white" stop-opacity="0"/>
</linearGradient>
<linearGradient id="paint6_linear_612_9" x1="1" y1="-1.74902e-06" x2="65" y2="68" gradientUnits="userSpaceOnUse">
<stop stop-color="white"/>
<stop offset="1" stop-color="white" stop-opacity="0"/>
</linearGradient>
<linearGradient id="paint7_linear_612_9" x1="1" y1="-1.74902e-06" x2="65" y2="68" gradientUnits="userSpaceOnUse">
<stop stop-color="white"/>
<stop offset="1" stop-color="white" stop-opacity="0"/>
</linearGradient>
<linearGradient id="paint8_linear_612_9" x1="1" y1="-1.74902e-06" x2="65" y2="68" gradientUnits="userSpaceOnUse">
<stop stop-color="white"/>
<stop offset="1" stop-color="white" stop-opacity="0"/>
</linearGradient>
<linearGradient id="paint9_linear_612_9" x1="1" y1="-1.74902e-06" x2="65" y2="68" gradientUnits="userSpaceOnUse">
<stop stop-color="white"/>
<stop offset="1" stop-color="white" stop-opacity="0"/>
</linearGradient>
<linearGradient id="paint10_linear_612_9" x1="1" y1="-1.74902e-06" x2="65" y2="68" gradientUnits="userSpaceOnUse">
<stop stop-color="white"/>
<stop offset="1" stop-color="white" stop-opacity="0"/>
</linearGradient>
<linearGradient id="paint11_linear_612_9" x1="1" y1="-1.74902e-06" x2="65" y2="68" gradientUnits="userSpaceOnUse">
<stop stop-color="white"/>
<stop offset="1" stop-color="white" stop-opacity="0"/>
</linearGradient>
<linearGradient id="paint12_linear_612_9" x1="1" y1="-1.74902e-06" x2="65" y2="68" gradientUnits="userSpaceOnUse">
<stop stop-color="white"/>
<stop offset="1" stop-color="white" stop-opacity="0"/>
</linearGradient>
<linearGradient id="paint13_linear_612_9" x1="1" y1="-1.74902e-06" x2="65" y2="68" gradientUnits="userSpaceOnUse">
<stop stop-color="white"/>
<stop offset="1" stop-color="white" stop-opacity="0"/>
</linearGradient>
<linearGradient id="paint14_linear_612_9" x1="1" y1="-1.74902e-06" x2="65" y2="68" gradientUnits="userSpaceOnUse">
<stop stop-color="white"/>
<stop offset="1" stop-color="white" stop-opacity="0"/>
</linearGradient>
<linearGradient id="paint15_linear_612_9" x1="1" y1="-1.74902e-06" x2="65" y2="68" gradientUnits="userSpaceOnUse">
<stop stop-color="white"/>
<stop offset="1" stop-color="white" stop-opacity="0"/>
</linearGradient>
<linearGradient id="paint16_linear_612_9" x1="51.0909" y1="12" x2="10.6364" y2="54.2727" gradientUnits="userSpaceOnUse">
<stop stop-color="white"/>
<stop offset="1" stop-color="white" stop-opacity="0"/>
</linearGradient>
<linearGradient id="paint17_linear_612_9" x1="51.0909" y1="12" x2="10.6364" y2="54.2727" gradientUnits="userSpaceOnUse">
<stop stop-color="white"/>
<stop offset="1" stop-color="white" stop-opacity="0"/>
</linearGradient>
<linearGradient id="paint18_linear_612_9" x1="51.0909" y1="12" x2="10.6364" y2="54.2727" gradientUnits="userSpaceOnUse">
<stop stop-color="white"/>
<stop offset="1" stop-color="white" stop-opacity="0"/>
</linearGradient>
<linearGradient id="paint19_linear_612_9" x1="51.0909" y1="12" x2="10.6364" y2="54.2727" gradientUnits="userSpaceOnUse">
<stop stop-color="white"/>
<stop offset="1" stop-color="white" stop-opacity="0"/>
</linearGradient>
<linearGradient id="paint20_linear_612_9" x1="51.0909" y1="12" x2="10.6364" y2="54.2727" gradientUnits="userSpaceOnUse">
<stop stop-color="white"/>
<stop offset="1" stop-color="white" stop-opacity="0"/>
</linearGradient>
<linearGradient id="paint21_linear_612_9" x1="51.0909" y1="12" x2="10.6364" y2="54.2727" gradientUnits="userSpaceOnUse">
<stop stop-color="white"/>
<stop offset="1" stop-color="white" stop-opacity="0"/>
</linearGradient>
<linearGradient id="paint22_linear_612_9" x1="51.0909" y1="12" x2="10.6364" y2="54.2727" gradientUnits="userSpaceOnUse">
<stop stop-color="white"/>
<stop offset="1" stop-color="white" stop-opacity="0"/>
</linearGradient>
<linearGradient id="paint23_linear_612_9" x1="51.0909" y1="12" x2="10.6364" y2="54.2727" gradientUnits="userSpaceOnUse">
<stop stop-color="white"/>
<stop offset="1" stop-color="white" stop-opacity="0"/>
</linearGradient>
<linearGradient id="paint24_linear_612_9" x1="51.0909" y1="12" x2="10.6364" y2="54.2727" gradientUnits="userSpaceOnUse">
<stop stop-color="white"/>
<stop offset="1" stop-color="white" stop-opacity="0"/>
</linearGradient>
<linearGradient id="paint25_linear_612_9" x1="51.0909" y1="12" x2="10.6364" y2="54.2727" gradientUnits="userSpaceOnUse">
<stop stop-color="white"/>
<stop offset="1" stop-color="white" stop-opacity="0"/>
</linearGradient>
<linearGradient id="paint26_linear_612_9" x1="51.0909" y1="12" x2="10.6364" y2="54.2727" gradientUnits="userSpaceOnUse">
<stop stop-color="white"/>
<stop offset="1" stop-color="white" stop-opacity="0"/>
</linearGradient>
<linearGradient id="paint27_linear_612_9" x1="51.0909" y1="12" x2="10.6364" y2="54.2727" gradientUnits="userSpaceOnUse">
<stop stop-color="white"/>
<stop offset="1" stop-color="white" stop-opacity="0"/>
</linearGradient>
<linearGradient id="paint28_linear_612_9" x1="51.0909" y1="12" x2="10.6364" y2="54.2727" gradientUnits="userSpaceOnUse">
<stop stop-color="white"/>
<stop offset="1" stop-color="white" stop-opacity="0"/>
</linearGradient>
<linearGradient id="paint29_linear_612_9" x1="51.0909" y1="12" x2="10.6364" y2="54.2727" gradientUnits="userSpaceOnUse">
<stop stop-color="white"/>
<stop offset="1" stop-color="white" stop-opacity="0"/>
</linearGradient>
<linearGradient id="paint30_linear_612_9" x1="51.0909" y1="12" x2="10.6364" y2="54.2727" gradientUnits="userSpaceOnUse">
<stop stop-color="white"/>
<stop offset="1" stop-color="white" stop-opacity="0"/>
</linearGradient>
<linearGradient id="paint31_linear_612_9" x1="51.0909" y1="12" x2="10.6364" y2="54.2727" gradientUnits="userSpaceOnUse">
<stop stop-color="white"/>
<stop offset="1" stop-color="white" stop-opacity="0"/>
</linearGradient>
</defs>
</svg>
