<svg width="68" height="66" viewBox="0 0 68 66" fill="none" xmlns="http://www.w3.org/2000/svg">
<path fill-rule="evenodd" clip-rule="evenodd" d="M44.9746 49.5C44.9746 40.3873 40.0611 33 34.0001 33C27.939 33 23.0255 40.3873 23.0255 49.5C23.0255 58.6127 27.939 66 34.0001 66C40.0611 66 44.9746 58.6127 44.9746 49.5ZM43.9294 47.1048C43.9294 39.3149 39.4839 33 34.0001 33C28.5162 33 24.0707 39.3149 24.0707 47.1048C24.0707 54.8947 28.5162 61.2097 34.0001 61.2097C39.4839 61.2097 43.9294 54.8947 43.9294 47.1048Z" fill="url(#paint0_radial_609_5)"/>
<path fill-rule="evenodd" clip-rule="evenodd" d="M44.9746 16.5C44.9746 25.6127 40.0611 33 34.0001 33C27.939 33 23.0255 25.6127 23.0255 16.5C23.0255 7.3873 27.939 0 34.0001 0C40.0611 0 44.9746 7.3873 44.9746 16.5ZM43.9294 18.8952C43.9294 26.6851 39.4839 33 34.0001 33C28.5162 33 24.0707 26.6851 24.0707 18.8952C24.0707 11.1053 28.5162 4.79032 34.0001 4.79032C39.4839 4.79032 43.9294 11.1053 43.9294 18.8952Z" fill="url(#paint1_radial_609_5)"/>
<path fill-rule="evenodd" clip-rule="evenodd" d="M53.7437 31.7241C45.8701 27.1677 37.0306 27.7391 34.0001 33.0003C30.9695 38.2616 34.8956 46.2203 42.7692 50.7766C50.6427 55.333 59.4822 54.7616 62.5128 49.5003C65.5433 44.2391 61.6173 36.2804 53.7437 31.7241ZM51.1516 31.4337C44.421 27.5388 36.742 28.2402 34.0001 33.0003C31.2581 37.7605 34.4916 44.7768 41.2223 48.6718C47.9529 52.5667 55.6319 51.8653 58.3738 47.1052C61.1158 42.345 57.8823 35.3287 51.1516 31.4337Z" fill="url(#paint2_radial_609_5)"/>
<path fill-rule="evenodd" clip-rule="evenodd" d="M25.2309 15.2242C33.1045 19.7805 37.0305 27.7392 34 33.0005C30.9695 38.2617 22.1299 38.8331 14.2564 34.2767C6.38279 29.7204 2.45674 21.7617 5.48728 16.5005C8.51781 11.2392 17.3573 10.6678 25.2309 15.2242ZM26.7778 17.329C33.5084 21.224 36.7419 28.2403 34 33.0005C31.2581 37.7606 23.5791 38.462 16.8484 34.567C10.1178 30.6721 6.8843 23.6558 9.62622 18.8956C12.3681 14.1355 20.0472 13.4341 26.7778 17.329Z" fill="url(#paint3_radial_609_5)"/>
<path fill-rule="evenodd" clip-rule="evenodd" d="M14.2563 31.7241C22.1299 27.1677 30.9694 27.7391 33.9999 33.0003C37.0305 38.2616 33.1044 46.2203 25.2308 50.7766C17.3573 55.333 8.51775 54.7616 5.48721 49.5003C2.45667 44.2391 6.38273 36.2804 14.2563 31.7241ZM16.8484 31.4337C23.579 27.5388 31.258 28.2402 33.9999 33.0003C36.7419 37.7605 33.5084 44.7768 26.7777 48.6718C20.0471 52.5667 12.3681 51.8653 9.62616 47.1052C6.88424 42.345 10.1177 35.3287 16.8484 31.4337Z" fill="url(#paint4_radial_609_5)"/>
<path fill-rule="evenodd" clip-rule="evenodd" d="M42.7691 15.2242C34.8955 19.7805 30.9695 27.7392 34 33.0005C37.0305 38.2617 45.8701 38.8331 53.7436 34.2767C61.6172 29.7204 65.5433 21.7617 62.5127 16.5005C59.4822 11.2392 50.6427 10.6678 42.7691 15.2242ZM41.2222 17.329C34.4916 21.224 31.2581 28.2403 34 33.0005C36.7419 37.7606 44.4209 38.462 51.1516 34.567C57.8822 30.6721 61.1157 23.6558 58.3738 18.8956C55.6319 14.1355 47.9528 13.4341 41.2222 17.329Z" fill="url(#paint5_radial_609_5)"/>
<defs>
<radialGradient id="paint0_radial_609_5" cx="0" cy="0" r="1" gradientTransform="matrix(14.1339 -13.5882 19.8651 43.455 33.8338 49.5)" gradientUnits="userSpaceOnUse">
<stop stop-color="white"/>
<stop offset="1" stop-color="white" stop-opacity="0"/>
</radialGradient>
<radialGradient id="paint1_radial_609_5" cx="0" cy="0" r="1" gradientTransform="matrix(14.1339 13.5882 19.8651 -43.455 33.8338 16.5)" gradientUnits="userSpaceOnUse">
<stop stop-color="white"/>
<stop offset="1" stop-color="white" stop-opacity="0"/>
</radialGradient>
<radialGradient id="paint2_radial_609_5" cx="0" cy="0" r="1" gradientTransform="matrix(-4.67359 -19.0628 47.4787 4.48396 48.1733 41.3947)" gradientUnits="userSpaceOnUse">
<stop stop-color="white"/>
<stop offset="1" stop-color="white" stop-opacity="0"/>
</radialGradient>
<radialGradient id="paint3_radial_609_5" cx="0" cy="0" r="1" gradientTransform="matrix(18.8075 -5.47457 -27.6136 -38.9711 19.6605 24.8948)" gradientUnits="userSpaceOnUse">
<stop stop-color="white"/>
<stop offset="1" stop-color="white" stop-opacity="0"/>
</radialGradient>
<radialGradient id="paint4_radial_609_5" cx="0" cy="0" r="1" gradientTransform="matrix(4.67359 -19.0628 -47.4787 4.48396 19.8267 41.3947)" gradientUnits="userSpaceOnUse">
<stop stop-color="white"/>
<stop offset="1" stop-color="white" stop-opacity="0"/>
</radialGradient>
<radialGradient id="paint5_radial_609_5" cx="0" cy="0" r="1" gradientTransform="matrix(-18.8075 -5.47457 27.6136 -38.9711 48.3395 24.8948)" gradientUnits="userSpaceOnUse">
<stop stop-color="white"/>
<stop offset="1" stop-color="white" stop-opacity="0"/>
</radialGradient>
</defs>
</svg>
